<?xml version="1.0" encoding="utf-8"?>
<!-- Generator: Adobe Illustrator 22.1.0, SVG Export Plug-In . SVG Version: 6.00 Build 0)  -->
<svg version="1.1" id="Layer_6" xmlns="http://www.w3.org/2000/svg" xmlns:xlink="http://www.w3.org/1999/xlink" x="0px" y="0px"
	 viewBox="0 0 1527.1 1502.4" style="enable-background:new 0 0 1527.1 1502.4;" xml:space="preserve">
<style type="text/css">
	.st0{fill:#FFFFFF;}
	.st1{fill:#E84B6C;}
</style>
<polygon id="XMLID_1817_" class="st0" points="358.2,1059.5 392.8,729.9 412.5,636.5 425.5,602.6 471,537.7 498.9,521.8 
	545.3,516.4 565.9,521.8 595.5,500.9 638.1,489.4 640,469.2 661.5,456.6 718.2,437.5 842.6,436.3 916.2,452 938.1,467.7 
	915.7,526.3 970.4,534.7 1010.7,547 1048,578.1 1081.6,627.3 1123,729.7 1154.7,828.3 1188.3,922.3 1220.7,1050.2 1188.3,1068.4 
	1140,1072.2 1091.8,1073.3 1081.6,984.8 1052.9,819.6 1011.1,768.5 976,727.9 966.1,695.4 931.4,708.2 890,731.9 874.1,736.7 
	874.3,713.1 938.1,657.8 853.5,692.4 832.8,695.4 832.8,686.5 853.5,660.8 921.6,620.2 818,646 818,632.1 778.7,637.5 735.9,636.5 
	723.9,662.9 634.1,678.7 640,689 708.5,700.4 694.9,718.5 567.7,736.7 553.5,767 484.1,801.4 489.6,1081.7 430.8,1086.5 
	383.3,1076.1 "/>
<polygon id="XMLID_1832_" class="st0" points="565.9,413 529.7,398.6 524.6,374.3 529.7,355.4 506,350.7 485.1,322.5 478.3,308.5 
	489.6,286.7 460.4,268.8 449.5,244.1 454.5,216.6 493.7,194.2 529.7,202.7 571.6,213.1 609.9,191.7 634.1,152.1 671.7,121.7 
	724.7,95.6 768.9,102 802.1,118.5 808.7,138.6 833.9,146.6 865.3,169.2 877.2,194.2 881.7,237.4 877.2,268.8 851.1,324.1 
	833.9,364.5 833.9,403.7 843,417.1 833.9,432.8 763.6,432.8 759.7,422.8 697.6,417.1 629.2,383.8 595.5,369.2 581.1,374.3 "/>
<path id="XMLID_1809_" class="st1" d="M759.6,417.1h-69.2l-76.3-32l-18.2-25.5L566,432.8l-22.3,48.9l-49.9,15l-39.2,13.7l-61.6,42
	l-20.8,28.5L346,620.2l-48.9,107.5L250.9,954l-20.4,118.2l-11,74l8.4,111.3l40.6,73.7l46.2,26.2l54.6,9.9l23.2-12l35-9.5l39.1-42.8
	l17.3-57l15.1-90.4l-9.6-74l-44.8,9.4l-32.3-0.4l-54.6-27.2l11.3-150.6l43.3-276.3l54.4-97.1l54.8-22.2l44.5-1.6l49-12.7l18.9-6.3
	c0.9-14.9,8.2-30.6,21.2-47.1l48.9-10.6l55.3-5.9L759.6,417.1L759.6,417.1z"/>
<polygon id="XMLID_1808_" class="st1" points="728.4,637.5 813.5,637.5 819.1,648.2 890.5,627.3 849.3,655.7 826.9,682.2 
	843.6,693.7 883.1,679.8 911,668 877.2,705.2 868.2,723.1 876,741.3 930.5,715 962.6,692.4 974.8,725.1 995.5,755.8 1036.6,789.2 
	1062.4,837.4 1077.4,918.7 1114.8,1319.5 1041.6,1343.4 882.7,1355.6 744.4,1378.2 645.3,1367.4 412.5,1351.2 490.8,1237 
	480.2,809.1 550.8,770.1 563.3,732.6 715,709.5 704.3,694.4 603.3,685.9 733.1,655.4 "/>
<polygon id="XMLID_1807_" class="st1" points="941.5,481.7 934.7,510 967.2,525.8 1033.4,558 1078.3,620.2 1105.9,676.4 
	1228.3,1057.2 1156.5,1080.2 1081.5,1072.2 1105.9,1310 1152,1356.6 1201.9,1361.5 1242.1,1332.7 1273.7,1270.5 1280.1,1127.1 
	1201,889.9 1151.8,762.3 1144,656.2 1105.9,564.6 1061.5,517.2 "/>
<polygon id="XMLID_1806_" class="st1" points="620.7,627.3 685.4,608.3 713.7,627.3 701.7,636.5 "/>
<polygon id="XMLID_1805_" class="st1" points="613,546.2 624.1,576.5 655.3,576.5 634.1,534.7 "/>
<polygon id="XMLID_1804_" class="st1" points="590.1,581.9 559.2,571.5 546.4,578.4 545.3,595.9 590.1,586.2 "/>
<path id="XMLID_1803_" d="M890.5,467.5c0,13.8-70.4,34.7-126.9,34.7c-56.5,0-102.1-11.2-102.1-25.1s45.7-25.1,102.1-25.1
	C820,451.9,890.5,453.7,890.5,467.5z"/>
<polygon id="XMLID_1802_" points="865.3,438.8 902.5,417.1 929.1,344 917.8,280 934.7,215.3 971.2,194.2 997.1,183.9 1034.6,201 
	1041.3,243 1039.2,259 1080.8,246 1121,257.4 1137.9,265 1156.5,286.7 1165.2,324.1 1140,359.7 1107.4,371.9 943,426.2 868.2,445.8 
	"/>
<circle id="XMLID_1801_" cx="970.1" cy="145.8" r="17.6"/>
<g id="XMLID_1798_">
	<path id="XMLID_2738_" class="st0" d="M931.4,275.7c0,0,0.1-1.7,0.3-4.5c0.2-1.4,0.2-3.1,0.5-5.1c0.3-2,0.6-4.3,1-6.7
		c0.5-2.4,1.1-5,1.8-7.8c0.4-1.4,0.9-2.8,1.3-4.2c0.4-1.5,0.9-2.9,1.5-4.4c0.6-1.5,1.1-3,1.7-4.4s1.4-3,2.1-4.4
		c0.3-0.8,0.8-1.5,1.1-2.3l1.3-2.2c0.9-1.4,1.7-3,2.7-4.3c1-1.4,2-2.7,3-4.1c1-1.3,2.2-2.5,3.3-3.8c1-1.3,2.3-2.3,3.6-3.5
		c0.6-0.5,1.2-1.1,1.8-1.7s1.3-1,1.9-1.5c1.3-1,2.4-2,3.8-2.8c1.3-0.8,2.6-1.6,3.8-2.3c1.2-0.7,2.5-1.3,3.8-1.9
		c1.2-0.6,2.4-1.1,3.7-1.5c1.2-0.4,2.3-0.8,3.4-1.1c1-0.3,2.2-0.5,3.1-0.8c2-0.4,3.7-0.9,5.1-1c2.9-0.3,4.5-0.4,4.5-0.4
		s-1.6,0.6-4.2,1.7c-1.4,0.4-2.9,1.2-4.7,2c-1.8,0.7-3.7,1.8-5.8,3c-1,0.5-2.1,1.2-3.1,1.9c-1,0.7-2.3,1.3-3.3,2.2
		c-1,0.8-2.2,1.7-3.3,2.5c-1.1,0.9-2.2,1.9-3.2,2.8c-0.5,0.5-1.1,1-1.7,1.5c-0.5,0.5-1,1-1.6,1.7c-1,1.1-2.2,2.1-3,3.3
		c-1,1.2-2,2.3-3,3.6c-0.9,1.3-1.8,2.5-2.7,3.8c-1,1.2-1.7,2.6-2.5,3.9l-1.2,2c-0.3,0.7-0.8,1.4-1.1,2.1c-0.7,1.4-1.5,2.7-2.2,4.1
		c-0.7,1.4-1.3,2.8-1.9,4.1c-0.7,1.3-1.2,2.7-1.8,4c-0.6,1.3-1.1,2.6-1.7,3.9c-1,2.6-1.9,5-2.8,7.3c-0.8,2.3-1.5,4.4-2.2,6.3
		c-0.7,1.8-1.1,3.6-1.7,4.9C932,274.1,931.4,275.7,931.4,275.7z"/>
</g>
<g id="XMLID_1795_">
	<path id="XMLID_2727_" d="M397.5,1247.8c0,0,0.3-0.7,0.9-1.9c0.6-1.2,1.5-2.8,2.7-4.7c2.3-3.8,5.7-8.6,9.6-13.2
		c3.7-4.5,7.8-8.9,11.1-11.8c1.7-1.5,3.1-2.7,4.2-3.5c1-0.8,1.7-1.2,1.7-1.2s-0.3,0.7-0.9,1.9c-0.6,1.2-1.5,2.8-2.7,4.7
		c-2.3,3.8-5.7,8.6-9.6,13.2c-3.7,4.5-7.8,8.9-11.1,11.8c-1.7,1.5-3.1,2.7-4.2,3.5C398.1,1247.5,397.5,1247.8,397.5,1247.8z"/>
</g>
<g id="XMLID_1792_">
	<path id="XMLID_2725_" d="M351.9,1357.4c0,0,0.3-0.7,0.9-1.9c0.6-1.2,1.5-2.8,2.7-4.7c2.3-3.8,5.7-8.6,9.6-13.2
		c3.7-4.5,7.8-8.9,11.1-11.8c1.7-1.5,3.1-2.7,4.2-3.5c1-0.8,1.7-1.2,1.7-1.2s-0.3,0.7-0.9,1.9c-0.6,1.2-1.5,2.8-2.7,4.7
		c-2.3,3.8-5.7,8.6-9.6,13.2c-3.7,4.5-7.8,8.9-11.1,11.8c-1.7,1.5-3.1,2.7-4.2,3.5C352.5,1356.9,351.9,1357.4,351.9,1357.4z"/>
</g>
<g id="XMLID_1789_">
	<path id="XMLID_1815_" d="M640,864.7c0,0,0.3-0.7,0.9-1.9c0.6-1.2,1.5-2.8,2.7-4.7c2.3-3.8,5.7-8.6,9.6-13.2
		c3.7-4.5,7.8-8.9,11.1-11.8c1.7-1.5,3.1-2.7,4.2-3.5c1-0.8,1.7-1.2,1.7-1.2s-0.3,0.7-0.9,1.9c-0.6,1.2-1.5,2.8-2.7,4.7
		c-2.3,3.8-5.7,8.6-9.6,13.2c-3.7,4.5-7.8,8.9-11.1,11.8c-1.7,1.5-3.1,2.7-4.2,3.5C640.6,864.3,640,864.7,640,864.7z"/>
</g>
<g id="XMLID_1786_">
	<path id="XMLID_1813_" d="M748.5,736.7c0,0,0.3-0.7,0.9-1.9c0.6-1.2,1.5-2.8,2.7-4.7c2.3-3.8,5.7-8.6,9.6-13.2
		c3.7-4.5,7.8-8.9,11.1-11.8c1.7-1.5,3.1-2.7,4.2-3.5c1-0.8,1.7-1.2,1.7-1.2s-0.3,0.7-0.9,1.9c-0.6,1.2-1.5,2.8-2.7,4.7
		c-2.3,3.8-5.7,8.6-9.6,13.2c-3.7,4.5-7.8,8.9-11.1,11.8c-1.7,1.5-3.1,2.7-4.2,3.5C749.2,736.3,748.5,736.7,748.5,736.7z"/>
</g>
<g id="XMLID_1783_">
	<path id="XMLID_1811_" d="M880.9,971.6c0,0,0.3-0.7,0.9-1.9c0.6-1.2,1.5-2.8,2.7-4.7c2.3-3.8,5.7-8.6,9.6-13.2
		c3.7-4.5,7.8-8.9,11.1-11.8c1.7-1.5,3.1-2.7,4.2-3.5c1-0.8,1.7-1.2,1.7-1.2s-0.3,0.7-0.9,1.9c-0.6,1.2-1.5,2.8-2.7,4.7
		c-2.3,3.8-5.7,8.6-9.6,13.2c-3.7,4.5-7.8,8.9-11.1,11.8c-1.7,1.5-3.1,2.7-4.2,3.5C881.5,971.1,880.9,971.6,880.9,971.6z"/>
</g>
<g id="XMLID_1780_">
	<path id="XMLID_1799_" d="M793.2,874.1c0,0,0.3-0.7,0.9-1.9c0.6-1.2,1.5-2.8,2.7-4.7c2.3-3.8,5.7-8.6,9.6-13.2
		c3.7-4.5,7.8-8.9,11.1-11.8c1.7-1.5,3.1-2.7,4.2-3.5c1-0.8,1.7-1.2,1.7-1.2s-0.3,0.7-0.9,1.9c-0.6,1.2-1.5,2.8-2.7,4.7
		c-2.3,3.8-5.7,8.6-9.6,13.2c-3.7,4.5-7.8,8.9-11.1,11.8c-1.7,1.5-3.1,2.7-4.2,3.5C793.8,873.7,793.2,874.1,793.2,874.1z"/>
</g>
<g id="XMLID_1777_">
	<path id="XMLID_1796_" d="M609.9,1086.7c0,0,0.3-0.7,0.9-1.9c0.6-1.2,1.5-2.8,2.7-4.7c2.3-3.8,5.7-8.6,9.6-13.2
		c3.7-4.5,7.8-8.9,11.1-11.8c1.7-1.5,3.1-2.7,4.2-3.5c1-0.8,1.7-1.2,1.7-1.2s-0.3,0.7-0.9,1.9c-0.6,1.2-1.5,2.8-2.7,4.7
		c-2.3,3.8-5.7,8.6-9.6,13.2c-3.7,4.5-7.8,8.9-11.1,11.8c-1.7,1.5-3.1,2.7-4.2,3.5S609.9,1086.7,609.9,1086.7z"/>
</g>
<g id="XMLID_1774_">
	<path id="XMLID_1793_" d="M558.6,819.6c0,0,0.3-0.7,0.9-1.9c0.6-1.2,1.5-2.8,2.7-4.7c2.3-3.8,5.7-8.6,9.6-13.2
		c3.7-4.5,7.8-8.9,11.1-11.8c1.7-1.5,3.1-2.7,4.2-3.5c1-0.8,1.7-1.2,1.7-1.2s-0.3,0.7-0.9,1.9c-0.6,1.2-1.5,2.8-2.7,4.7
		c-2.3,3.8-5.7,8.6-9.6,13.2c-3.7,4.5-7.8,8.9-11.1,11.8c-1.7,1.5-3.1,2.7-4.2,3.5C559.2,819.1,558.6,819.6,558.6,819.6z"/>
</g>
<g id="XMLID_1771_">
	<path id="XMLID_1790_" d="M354.4,654.8c0,0,0.3-0.7,0.9-1.9c0.6-1.2,1.5-2.8,2.7-4.7c2.3-3.8,5.7-8.6,9.6-13.2
		c3.7-4.5,7.8-8.9,11.1-11.8c1.7-1.5,3.1-2.7,4.2-3.5s1.7-1.2,1.7-1.2s-0.3,0.7-0.9,1.9c-0.6,1.2-1.5,2.8-2.7,4.7
		c-2.3,3.8-5.7,8.6-9.6,13.2c-3.7,4.5-7.8,8.9-11.1,11.8c-1.7,1.5-3.1,2.7-4.2,3.5C355.1,654.3,354.4,654.8,354.4,654.8z"/>
</g>
<g id="XMLID_1768_">
	<path id="XMLID_1787_" d="M748.5,1059.5c0,0,0.3-0.7,0.9-1.9c0.6-1.2,1.5-2.8,2.7-4.7c2.3-3.8,5.7-8.6,9.6-13.2
		c3.7-4.5,7.8-8.9,11.1-11.8c1.7-1.5,3.1-2.7,4.2-3.5s1.7-1.2,1.7-1.2s-0.3,0.7-0.9,1.9c-0.6,1.2-1.5,2.8-2.7,4.7
		c-2.3,3.8-5.7,8.6-9.6,13.2c-3.7,4.5-7.8,8.9-11.1,11.8c-1.7,1.5-3.1,2.7-4.2,3.5C749.2,1059.1,748.5,1059.5,748.5,1059.5z"/>
</g>
<g id="XMLID_1765_">
	<path id="XMLID_1784_" d="M955.4,785.2c0,0,0.3-0.7,0.9-1.9c0.6-1.2,1.5-2.8,2.7-4.7c2.3-3.8,5.7-8.6,9.6-13.2
		c3.7-4.5,7.8-8.9,11.1-11.8c1.7-1.5,3.1-2.7,4.2-3.5c1-0.8,1.7-1.2,1.7-1.2s-0.3,0.7-0.9,1.9c-0.6,1.2-1.5,2.8-2.7,4.7
		c-2.3,3.8-5.7,8.6-9.6,13.2c-3.7,4.5-7.8,8.9-11.1,11.8c-1.7,1.5-3.1,2.7-4.2,3.5C956.1,784.8,955.4,785.2,955.4,785.2z"/>
</g>
<g id="XMLID_1762_">
	<path id="XMLID_1781_" d="M1036.5,922.3c0,0,0.3-0.7,0.9-1.9c0.6-1.2,1.5-2.8,2.7-4.7c2.3-3.8,5.7-8.6,9.6-13.2
		c3.7-4.5,7.8-8.9,11.1-11.8c1.7-1.5,3.1-2.7,4.2-3.5c1-0.8,1.7-1.2,1.7-1.2s-0.3,0.7-0.9,1.9s-1.5,2.8-2.7,4.7
		c-2.3,3.8-5.7,8.6-9.6,13.2c-3.7,4.5-7.8,8.9-11.1,11.8c-1.7,1.5-3.1,2.7-4.2,3.5C1037.1,922,1036.5,922.3,1036.5,922.3z"/>
</g>
<g id="XMLID_1759_">
	<path id="XMLID_1778_" d="M970.4,1193.5c0,0,0.3-0.7,0.9-1.9c0.6-1.2,1.5-2.8,2.7-4.7c2.3-3.8,5.7-8.6,9.6-13.2
		c3.7-4.5,7.8-8.9,11.1-11.8c1.7-1.5,3.1-2.7,4.2-3.5c1-0.8,1.7-1.2,1.7-1.2s-0.3,0.7-0.9,1.9c-0.6,1.2-1.5,2.8-2.7,4.7
		c-2.3,3.8-5.7,8.6-9.6,13.2c-3.7,4.5-7.8,8.9-11.1,11.8c-1.7,1.5-3.1,2.7-4.2,3.5C971.1,1193.1,970.4,1193.5,970.4,1193.5z"/>
</g>
<g id="XMLID_1756_">
	<path id="XMLID_1775_" d="M709.2,1242.3c0,0,0.3-0.7,0.9-1.9s1.5-2.8,2.7-4.7c2.3-3.8,5.7-8.6,9.6-13.2c3.7-4.5,7.8-8.9,11.1-11.8
		c1.7-1.5,3.1-2.7,4.2-3.5c1-0.8,1.7-1.2,1.7-1.2s-0.3,0.7-0.9,1.9c-0.6,1.2-1.5,2.8-2.7,4.7c-2.3,3.8-5.7,8.6-9.6,13.2
		c-3.7,4.5-7.8,8.9-11.1,11.8c-1.7,1.5-3.1,2.7-4.2,3.5C709.9,1241.8,709.2,1242.3,709.2,1242.3z"/>
</g>
<g id="XMLID_1753_">
	<path id="XMLID_1772_" d="M895.9,1112.5c0,0,0.3-0.7,0.9-1.9s1.5-2.8,2.7-4.7c2.3-3.8,5.7-8.6,9.6-13.2c3.7-4.5,7.8-8.9,11.1-11.8
		c1.7-1.5,3.1-2.7,4.2-3.5c1-0.8,1.7-1.2,1.7-1.2s-0.3,0.7-0.9,1.9s-1.5,2.8-2.7,4.7c-2.3,3.8-5.7,8.6-9.6,13.2
		c-3.7,4.5-7.8,8.9-11.1,11.8c-1.7,1.5-3.1,2.7-4.2,3.5C896.6,1112.1,895.9,1112.5,895.9,1112.5z"/>
</g>
<g id="XMLID_1750_">
	<path id="XMLID_1769_" d="M564.2,1369.4c0,0,0.3-0.7,0.9-1.9c0.6-1.2,1.5-2.8,2.7-4.7c2.3-3.8,5.7-8.6,9.6-13.2
		c3.7-4.5,7.8-8.9,11.1-11.8c1.7-1.5,3.1-2.7,4.2-3.5c1-0.8,1.7-1.2,1.7-1.2s-0.3,0.7-0.9,1.9c-0.6,1.2-1.5,2.8-2.7,4.7
		c-2.3,3.8-5.7,8.6-9.6,13.2c-3.7,4.5-7.8,8.9-11.1,11.8c-1.7,1.5-3.1,2.7-4.2,3.5C564.8,1369,564.2,1369.4,564.2,1369.4z"/>
</g>
<g id="XMLID_1747_">
	<path id="XMLID_1766_" d="M825.3,1369.4c0,0,0.3-0.7,0.9-1.9c0.6-1.2,1.5-2.8,2.7-4.7c2.3-3.8,5.7-8.6,9.6-13.2
		c3.7-4.5,7.8-8.9,11.1-11.8c1.7-1.5,3.1-2.7,4.2-3.5c1-0.8,1.7-1.2,1.7-1.2s-0.3,0.7-0.9,1.9s-1.5,2.8-2.7,4.7
		c-2.3,3.8-5.7,8.6-9.6,13.2c-3.7,4.5-7.8,8.9-11.1,11.8c-1.7,1.5-3.1,2.7-4.2,3.5C826,1369,825.3,1369.4,825.3,1369.4z"/>
</g>
<g id="XMLID_1744_">
	<path id="XMLID_1763_" d="M484.5,1247.8c0,0,0.3-0.7,0.9-1.9c0.6-1.2,1.5-2.8,2.7-4.7c2.3-3.8,5.7-8.6,9.6-13.2
		c3.7-4.5,7.8-8.9,11.1-11.8c1.7-1.5,3.1-2.7,4.2-3.5c1-0.8,1.7-1.2,1.7-1.2s-0.3,0.7-0.9,1.9c-0.6,1.2-1.5,2.8-2.7,4.7
		c-2.3,3.8-5.7,8.6-9.6,13.2c-3.7,4.5-7.8,8.9-11.1,11.8c-1.7,1.5-3.1,2.7-4.2,3.5C485.1,1247.5,484.5,1247.8,484.5,1247.8z"/>
</g>
<g id="XMLID_1723_">
	<path id="XMLID_1760_" d="M1077.3,1290.6c0,0,0.3-0.7,0.9-1.9c0.6-1.2,1.5-2.8,2.7-4.7c2.3-3.8,5.7-8.6,9.6-13.2
		c3.7-4.5,7.8-8.9,11.1-11.8c1.7-1.5,3.1-2.7,4.2-3.5c1-0.8,1.7-1.2,1.7-1.2s-0.3,0.7-0.9,1.9s-1.5,2.8-2.7,4.7
		c-2.3,3.8-5.7,8.6-9.6,13.2c-3.7,4.5-7.8,8.9-11.1,11.8c-1.7,1.5-3.1,2.7-4.2,3.5C1077.9,1290.1,1077.3,1290.6,1077.3,1290.6z"/>
</g>
<g id="XMLID_1720_">
	<path id="XMLID_1757_" d="M1205.6,1242.3c0,0,0.3-0.7,0.9-1.9c0.6-1.2,1.5-2.8,2.7-4.7c2.3-3.8,5.7-8.6,9.6-13.2
		c3.7-4.5,7.8-8.9,11.1-11.8c1.7-1.5,3.1-2.7,4.2-3.5c1-0.8,1.7-1.2,1.7-1.2s-0.3,0.7-0.9,1.9c-0.6,1.2-1.5,2.8-2.7,4.7
		c-2.3,3.8-5.7,8.6-9.6,13.2c-3.7,4.5-7.8,8.9-11.1,11.8c-1.7,1.5-3.1,2.7-4.2,3.5C1206.2,1241.8,1205.6,1242.3,1205.6,1242.3z"/>
</g>
<g id="XMLID_1717_">
	<path id="XMLID_1754_" d="M1066.6,596.6c0,0,0.3-0.7,0.9-1.9c0.6-1.2,1.5-2.8,2.7-4.7c2.3-3.8,5.7-8.6,9.6-13.2
		c3.7-4.5,7.8-8.9,11.1-11.8c1.7-1.5,3.1-2.7,4.2-3.5c1-0.8,1.7-1.2,1.7-1.2s-0.3,0.7-0.9,1.9c-0.6,1.2-1.5,2.8-2.7,4.7
		c-2.3,3.8-5.7,8.6-9.6,13.2c-3.7,4.5-7.8,8.9-11.1,11.8c-1.7,1.5-3.1,2.7-4.2,3.5C1067.2,596.1,1066.6,596.6,1066.6,596.6z"/>
</g>
<g id="XMLID_1714_">
	<path id="XMLID_1751_" d="M1116.7,1321c0,0,0.3-0.7,0.9-1.9c0.6-1.2,1.5-2.8,2.7-4.7c2.3-3.8,5.7-8.6,9.6-13.2
		c3.7-4.5,7.8-8.9,11.1-11.8c1.7-1.5,3.1-2.7,4.2-3.5c1-0.8,1.7-1.2,1.7-1.2s-0.3,0.7-0.9,1.9s-1.5,2.8-2.7,4.7
		c-2.3,3.8-5.7,8.6-9.6,13.2c-3.7,4.5-7.8,8.9-11.1,11.8c-1.7,1.5-3.1,2.7-4.2,3.5C1117.3,1320.6,1116.7,1321,1116.7,1321z"/>
</g>
<g id="XMLID_1383_">
	<path id="XMLID_1748_" d="M1227,1321c0,0,0.3-0.7,0.9-1.9c0.6-1.2,1.5-2.8,2.7-4.7c2.3-3.8,5.7-8.6,9.6-13.2
		c3.7-4.5,7.8-8.9,11.1-11.8c1.7-1.5,3.1-2.7,4.2-3.5c1-0.8,1.7-1.2,1.7-1.2s-0.3,0.7-0.9,1.9s-1.5,2.8-2.7,4.7
		c-2.3,3.8-5.7,8.6-9.6,13.2c-3.7,4.5-7.8,8.9-11.1,11.8c-1.7,1.5-3.1,2.7-4.2,3.5C1227.6,1320.6,1227,1321,1227,1321z"/>
</g>
<g id="XMLID_1380_">
	<path id="XMLID_1745_" d="M493.7,971.6c0,0,0.3-0.7,0.9-1.9c0.6-1.2,1.5-2.8,2.7-4.7c2.3-3.8,5.7-8.6,9.6-13.2
		c3.7-4.5,7.8-8.9,11.1-11.8c1.7-1.5,3.1-2.7,4.2-3.5c1-0.8,1.7-1.2,1.7-1.2s-0.3,0.7-0.9,1.9c-0.6,1.2-1.5,2.8-2.7,4.7
		c-2.3,3.8-5.7,8.6-9.6,13.2c-3.7,4.5-7.8,8.9-11.1,11.8c-1.7,1.5-3.1,2.7-4.2,3.5C494.4,971.1,493.7,971.6,493.7,971.6z"/>
</g>
<g id="XMLID_1377_">
	<path id="XMLID_1733_" d="M281,1059.5c0,0,0.3-0.7,0.9-1.9c0.6-1.2,1.5-2.8,2.7-4.7c2.3-3.8,5.7-8.6,9.6-13.2
		c3.7-4.5,7.8-8.9,11.1-11.8c1.7-1.5,3.1-2.7,4.2-3.5c1-0.8,1.7-1.2,1.7-1.2s-0.3,0.7-0.9,1.9c-0.6,1.2-1.5,2.8-2.7,4.7
		c-2.3,3.8-5.7,8.6-9.6,13.2c-3.7,4.5-7.8,8.9-11.1,11.8c-1.7,1.5-3.1,2.7-4.2,3.5C281.6,1059.1,281,1059.5,281,1059.5z"/>
</g>
<g id="XMLID_1374_">
	<path id="XMLID_1730_" d="M311.1,1283.6c0,0,0.3-0.7,0.9-1.9c0.6-1.2,1.5-2.8,2.7-4.7c2.3-3.8,5.7-8.6,9.6-13.2
		c3.7-4.5,7.8-8.9,11.1-11.8c1.7-1.5,3.1-2.7,4.2-3.5c1-0.8,1.7-1.2,1.7-1.2s-0.3,0.7-0.9,1.9c-0.6,1.2-1.5,2.8-2.7,4.7
		c-2.3,3.8-5.7,8.6-9.6,13.2c-3.7,4.5-7.8,8.9-11.1,11.8c-1.7,1.5-3.1,2.7-4.2,3.5C311.8,1283.2,311.1,1283.6,311.1,1283.6z"/>
</g>
<g id="XMLID_1371_">
	<path id="XMLID_1727_" d="M334.2,803.5c0,0,0.3-0.7,0.9-1.9c0.6-1.2,1.5-2.8,2.7-4.7c2.3-3.8,5.7-8.6,9.6-13.2
		c3.7-4.5,7.8-8.9,11.1-11.8c1.7-1.5,3.1-2.7,4.2-3.5c1-0.8,1.7-1.2,1.7-1.2s-0.3,0.7-0.9,1.9c-0.6,1.2-1.5,2.8-2.7,4.7
		c-2.3,3.8-5.7,8.6-9.6,13.2c-3.7,4.5-7.8,8.9-11.1,11.8c-1.7,1.5-3.1,2.7-4.2,3.5C334.9,803,334.2,803.5,334.2,803.5z"/>
</g>
<path id="XMLID_931_" d="M540.3,478.2c6.9-19.9,14.8-39.5,22.6-59c0.1-0.3-0.1-0.8-0.2-1.5c-1.1-0.4-2.4-1-3.7-1.4
	c-7.2-2.5-14.1-5.8-20.4-10.2c-7-4.7-12.4-10.9-16.4-18.2c-4.7-8.4-5.5-17.1-2.9-26.2c0.4-1.5,0.9-3,1.3-4.8c-1.2-0.5-2.3-1-3.4-1.5
	c-7.4-2.6-14.3-6.4-20.9-10.5c-6.5-4.2-11.7-9.7-15.7-16.4c-7-12.4-8-25-1.7-38c0.3-0.7,0.7-1.5,1-2.1c-0.7-1.9-2.4-2.2-3.8-3
	c-11.2-6.2-19.6-15.1-25.8-26.3c-2-3.6-3.6-7.2-4.4-11.2c-3-15.1,2.6-27.1,14-36.8c3.7-3.1,7.7-5.8,11.6-8.7c3.9-2.9,8-5.4,12.4-7.5
	c7.7-3.7,15.8-4.5,24.1-2.4c5.2,1.3,10.4,3.1,15.6,4.7c5.7,1.8,11.4,3.7,17.1,5.7c7.7,2.5,15.7,3.7,23.7,4c10,0.4,19.1-2.2,26.5-9.2
	c3.1-2.9,6-5.9,8.4-9.4c3.4-5,6.7-10,10.1-15c3.7-5.5,7.5-11,11.4-16.3c6.5-8.7,14.3-16.3,23.1-22.8c8.3-6.1,16.6-11.9,25.4-17.2
	c14.7-8.9,30.3-15.7,47-19.8c21.7-5.3,42.6-3.2,62.8,6.4c4.5,2.2,9,4.5,13.3,7c8.3,4.8,14.2,11.7,18.1,20.4c0.5,1.1,1,2.2,1.7,3.5
	c1,0.3,2.2,0.5,3.3,0.8c10.2,1.9,19.6,5.9,28.1,11.7c11,7.5,19.8,16.9,27.2,27.8c12.4,17.9,18.3,37.8,17.6,59.6
	c-0.3,9.9-2.3,19.5-5.1,29c-6.6,22.2-14.9,43.7-25,64.5c-4.4,9.2-9,18.4-13.4,27.7c-8.7,18.4-7.8,37.1-1.4,55.7
	c3,8.9,2.3,9.9-2.2,17.9c-0.8,1.4-2,2.5-3,3.7c-0.4,0.6-0.8,1.3-1.1,2c1.8,1.3,3.7,1.2,5.4,1.3c7.7,0.3,15.2,1,22.7,2.5
	c2.8,0.5,5-0.2,7-2.2c14.3-13.8,26.1-29.3,33.7-47.9c5.4-13.3,9.4-26.9,11.8-41c1.1-6.7,1.7-13.6,1.7-20.4c0-10.3-0.1-20.4-1-30.7
	c-0.6-7.8-1-15.7-1-23.5c-0.2-13,1.5-25.6,6.1-37.8c6.1-16.2,16.4-28.9,30.5-38.5c3.5-2.3,7.2-4.4,10.9-6.4
	c14.2-7.5,29.1-8.7,44.4-4c3,1,6.1,2.1,9,3.3c11.6,4.8,19.4,13.2,24.3,24.7c2.9,6.7,4.3,13.8,4.6,21.1c0.3,5,0.3,10-0.7,15.1
	c-0.2,1-0.5,2,0.2,2.9c1.6,0.6,2.7-0.4,3.9-1c7.7-3.1,15.4-5.8,23.4-7.8c12.4-3,24.6-3,36.9,0.4c16,4.5,29.9,12.4,41.2,24.9
	c6.9,7.6,11.8,16.2,13.9,26.3c1.3,6.5,1.5,13.2,0.5,19.8c-2,13.7-7.2,25.8-17.2,35.7c-7.4,7.2-15.8,13-24.9,17.8
	c-13.5,7.2-27.6,13-41.9,18.2c-29.2,10.7-59.2,19.1-89.4,26.5c-16.8,4.1-33.6,8-50.3,12.2c-15.6,3.9-30.9,8.8-45.9,14.4
	c-2.2,0.8-4.5,1.4-6.5,3.3c0.8,0.4,1.2,0.9,1.7,1c9.5,1.8,18.6,5,27.6,8.5c4.4,1.7,8.4,3.9,12,6.9c5,3.9,8,9,8.8,15.2
	c0.3,2,0.6,3.9,1,6.2c1,0.3,1.8,0.7,2.8,0.7c21.2,0.2,41.9,4.3,62.4,9.5c36.1,9.2,65.5,28.7,88.6,57.9c8.6,10.9,15.7,22.8,22.4,35
	c12.4,22.5,20.4,46.6,26.3,71.5c4.4,18.5,8.2,37.2,11.1,56.1c2.1,13.5,4.1,27,6.2,40.5c0.4,2.8,1.1,5.5,1.9,8.2
	c2.2,7.1,4.5,14.1,6.7,21.2c3.2,10.8,7.1,21.3,11.7,31.6c13.1,29.6,25.2,59.5,36.3,89.9c10.2,28.1,19.7,56.5,28.6,85
	c7.2,22.8,13.3,45.9,19.4,69c4.4,16.9,7.9,34,11.6,51.1c1.3,6.1,1.9,12.3,2.8,18.4c1,7.7,2.1,15.5,3,23.3c1,9.1,2,18.4,1.9,27.6
	c0,5.8,0.2,11.7,0,17.5s-0.4,11.7-0.9,17.4c-0.4,6.6-1,13.2-1.7,19.8c-2.1,19.8-6,39.2-11.9,58.3c-2.3,7.3-5.1,14.4-8.4,21.2
	c-5.4,11.1-12.6,21-21.2,29.8c-10.7,11.1-23.8,17.5-39.1,19.4c-17.1,2.2-33.6,0.6-49.9-4.9c-9-3-16.4-8.4-23.1-14.9
	c-1.3-1.2-2.3-2.7-3.3-4.3c-1.2-2-2.9-3.3-5-4.2c-1.3-0.5-2.5-1.1-3.8-1.7c-3-1.4-5.9-1.6-9.3-0.8c-12.5,2.7-25.1,5.1-37.8,7.5
	c-14.4,2.7-28.8,5.4-43.2,7.9c-11.2,2-22.5,3.7-33.8,5.5c-15.5,2.3-31,4.7-46.5,6.9c-13.1,1.8-26.3,3.6-39.4,5.3
	c-10.7,1.4-21.5,3-32.2,4.3c-8.4,1-16.7,2-25.1,2.8c-11.7,1.2-23.6,2.3-35.3,3.3c-5.2,0.4-10.4,0.9-15.6,1.2
	c-18,1-36.1,1.8-54.1,2.9c-15.5,0.9-30.9,0.7-46.4,0.8c-12.3,0-24.5-0.5-36.7-0.7c-16.3-0.2-32.5-1.2-48.7-2.3
	c-14.2-0.9-28.5-1.8-42.6-3c-10-0.8-20-2-29.9-3c-4.8-0.5-9.6-1-14.4-1.5c-9.6-1-19.1-2.2-28.7-3.3c-7.6-0.9-15.1-1.8-22.7-2.8
	c-7.4-1-14.7-1.8-22.1-3c-12.4-2-24.8-2.3-37.2-0.6c-2.8,0.3-5.6,0.9-8.1,2.2c-5.7,2.9-11.7,3.9-18,4.5c-3.4,0.3-6.8,0.8-10.2,1.1
	c-9.2,1-18.4,1.1-27.7-0.1c-20.4-2.5-39.4-9.2-57.3-19.2c-2.6-1.5-5-3.3-7.7-4.6c-10.8-5.3-19.3-13.6-28.8-20.6
	c-1.6-1.1-2.9-2.8-4-4.4c-3.5-5.4-6.9-10.8-10.3-16.3c-0.8-1.4-1.4-2.9-1.8-4.4c-4.4-13.1-8.7-26.3-13.1-39.4c-1-3.2-1.7-6.5-1.9-10
	c-0.3-4.6-1.3-9.1-2.1-13.7c-2.7-16.4-4-33.1-3.7-49.8c0.1-9.4-0.2-18.9-0.5-28.3c-0.3-10.4-0.1-20.9,1.1-31.2
	c1.1-10.4,2.5-20.7,4.1-31.1c2.2-14.1,5.3-28,8.8-41.9c3.8-15.4,6.7-31,9.7-46.6c1.4-7.3,2.8-14.6,4.2-21.8c0.5-2.8,1.2-5.5,0.3-8.3
	c-0.3-1-0.1-2.3,0.2-3.6c1.4-8.3,2.7-16.6,4.4-24.9c3.8-18.7,7.1-37.4,10.4-56.2c5.8-33.6,12.3-67.1,19.8-100.4
	c3-13.1,5.8-26.3,8.8-39.3c7-30.8,17-60.6,29.6-89.6c6.6-15.1,13.4-30.1,20-45.2c2.2-5,4.9-9.7,7.9-14.2c9-13.2,18.2-26.5,26.3-40.4
	c1-1.9,2.6-3.6,4.2-5.1c7.6-7.3,16-13.4,25.9-17.1c3-1.1,5.7-2.8,8.5-4.4c16.4-10.3,32.9-20.1,49.9-29.1
	c17.8-9.4,36.5-16.5,55.9-21.8c5.2-1.4,10.5-2.6,15.7-3.9C537,479.3,538.6,478.7,540.3,478.2z M703.9,627.1c0.2,0.1,0.3,0.1,0.4,0.2
	C704.2,627.3,704,627.3,703.9,627.1c-0.4-1.5-1.8-2-3-2.8c-4.4-3.1-8.9-6.2-13.2-9.3c-1-0.7-1.9-1.4-2.7-2
	c-3.9,1.2-7.5,2.3-11.1,3.5c-3.8,1.2-7.7,2.3-11.5,3.5c-3.7,1-7.4,1.9-11,3c-3.7,1.1-7.7,1.6-11.4,3.5c3.7,0.3,7.5,0.3,11.1,0
	c13.4-0.9,26.8-1,40.2,0.1C695.6,626.9,699.7,626.9,703.9,627.1z M1241.5,1116.4c-1.8-1-2-2.9-2.6-4.5c-3.3-9-6.5-18.1-9.7-27.2
	c-2.8-7.9-5.6-15.9-8.4-23.8c-0.3-0.9-1-1.7-1.4-2.4c-0.7,0.3-1.1,0.3-1.4,0.6c-9,7-19.2,11.5-30.2,14.6c-19.6,5.6-39.6,8.7-60,9
	c-2.2,0-4.4,0.2-6.6,0.4c-4.7,0.5-9.2,0.2-13.7-1.3c-2.9-1-5.7-1.7-9-1.9c-0.2,1-0.5,1.9-0.5,2.9c0.2,3.2,0.4,6.4,0.7,9.6
	c0.6,6.8,1.4,13.6,1.9,20.4c0.3,3.4,0.9,6.8,1.6,10.1c0.8,3.7,1.6,7.5,1.8,11.3c0.6,8.4,1.1,16.8,1.3,25.2
	c0.3,15.1,1.5,30.1,2.9,45.1c1.3,13.7,3.2,27.5,4.8,41.2c1.7,14.4,3.1,28.7,4.7,43.1c0.7,6.2,1.2,12.4,1.7,18.6c0.3,2.7,1,5,2.3,7.4
	c2.9,5.1,6,10,9.9,14.4c8.2,9.2,17.8,16,30.1,18.9c5.9,1.4,11.8,2.3,17.8,3c8.4,0.8,16.9,0.3,25.1-1.3c10.2-1.9,18.9-6.5,26.3-13.7
	c9.3-9,16.8-19.4,22.2-31.2c4.1-9,7.2-18.3,9.7-27.8c3.4-13.4,6.1-27,7.7-40.8c1.9-16.2,3.3-32.4,3-48.6c0-3.2,0.1-6.4-0.1-9.7
	c-0.4-7.6-0.8-15.2-1.6-22.8c-0.9-8.4-2-16.7-3.1-25.1c-0.8-6.2-1.5-12.4-2.7-18.4c-3.3-15.5-6.4-31.1-10.4-46.4
	c-6.8-26-13.7-52-21.8-77.6c-14.5-45.1-29.4-90.1-46.9-134.1c-1.4-3.6-2.8-7.1-4.2-10.7c-2.3-6-5.1-11.7-7.9-17.6
	c-9.8-20.1-16.8-41.2-23.2-62.6c-1.2-4.1-2.2-8.2-2.6-12.4c-1.2-12-3.4-23.8-5.2-35.8c-3-18.8-6.7-37.5-11.1-56
	c-2.9-11.9-6.1-23.7-10.2-35.2c-6.8-19-16.2-36.7-27.1-53.6c-9.7-15-21.4-28.1-35.5-39.1c-16-12.5-33.8-21.5-53.5-26.7
	c-8.4-2.2-16.7-4.2-25.2-5.9c-12.2-2.5-24.5-3.9-37.1-4.1c-1.4,0-2.8,0.1-3.9,0.2c-3.7,6.7-1.9,7.7,1.2,11.4
	c0.5,0.6,1.1,1.1,1.7,1.7c7.1,7.5,15.4,13.5,24.1,18.9c1,0.6,2.2,1,3.3,1.2c4.7,1.1,9.4,2.3,14,3.4c9.2,2.3,17.9,5.8,26.1,10.7
	c10.6,6.3,20.2,13.7,28.6,22.9c9.6,10.4,18,21.7,25.4,33.6c7,11.1,13.5,22.4,19.8,33.8c4.4,8.1,8.6,16.4,12.4,24.7
	c8,17.6,15.1,35.4,21.8,53.5c11,30,21.8,60,32.5,90.1c4.3,11.9,9.1,23.6,12.9,35.7c0.8,2.5,1.7,5,2.3,7.5c4,13.2,9.5,26,13.1,39.3
	c3.6,12.8,7.7,25.3,11.5,38c13.5,45.4,25.6,91.2,37.2,137c4.5,17.7,9.1,35.3,12.6,53.3c0.4,2,1,3.9,0.4,5.9L1241.5,1116.4z
	 M872.6,638c-1.4,0.3-2.8,0.3-4.1,0.7c-6.8,1.7-13.7,3.4-20.4,5c-7,1.7-14.1,3-21.1,4.5c-2.6,0.5-5.1,0.4-7.7,0
	c-3.7-0.6-6.5-2-7.7-5.8c-0.1-0.3-0.5-0.5-1-1c-0.6,0.1-1.4,0.1-2.2,0.3c-7.7,2.1-15.7,3.3-23.7,4.1c-7,0.7-14,0.7-21.1-0.1
	c-7.2-0.8-14.3-2-21.3-3.7c-1.1-0.3-2.3-0.8-3.4,0.6c1.2,5.7-1.6,9.9-5.5,13.7c-2.8,2.7-5.8,5-9.4,6.5c-3.5,1.6-7,3-10.6,4.4
	c-8.9,3.2-18.1,5.3-27.4,7c-13.2,2.5-26.5,4.6-39.9,6.2c-0.8,0.1-1.7,0.2-2.3,0.4c-0.7,0.3-1.7,0-2,1.1c13.7,0.5,27.2,2.2,40.6,5.1
	c8.6,1.9,17.1,4.7,25,8.6c3.5,1.7,6.6,3.9,9.2,6.7c2.7,2.9,2.9,6.3,0.2,9.1c-1.4,1.4-3,2.7-4.8,3.6c-2.1,1.1-4.4,1.9-6.7,2.6
	c-19.8,6.3-40.2,9.5-60.7,11.8c-9.1,1-18.4,1.9-27.6,2.9c-10.6,1.1-21.1,2.2-31.8,3.3c-4.8,0.5-9.6,1-14.4,1.7
	c-0.8,2-1.6,3.8-2.3,5.7c-2,5.5-4.7,10.6-8.3,15.3c-9.3,12.5-20.4,23.2-34,31.1c-9.4,5.5-19.1,10.4-29.3,13.9
	c-2.4,0.8-5,1.5-7.3,3.1c0,1.8-0.1,3.7,0,5.4c0.3,7.8,0.6,15.7,0.9,23.5c0.4,15.7,0.8,31.3,1,47c0.4,22.3,0.9,44.5,1.3,66.8
	c0.3,18.7,0.7,37.3,1.2,56c0.4,16.3,1,32.5,1.6,48.7c0.2,4.8,0.5,9.7,0.3,14.4c-0.2,3.1,2.5,5.7,1.6,8.6c-1,3-0.7,5.9-0.7,9
	c0.3,14.3,0.9,28.5,1,42.7c0.2,14.9,0.2,29.8-0.2,44.5c-0.3,10.4-1.1,20.9-1.8,31.2c-0.9,14.3-2.7,28.4-5.7,42.3
	c-1.4,6.7-3,13.3-2.8,20.2c0.1,2.3-0.6,4.4-1.8,6.3c-3.6,5.8-6.4,12.1-10.8,17.3c-9,15.3-20.4,28.9-32.9,41.4
	c-5,5-10.2,9.7-15.2,14.6c-0.7,0.6-1.7,1.2-0.9,2.7c3.7,0.3,7.5,0.3,11.2,0.7c9.1,1.2,18.4,1.7,27.6,2.1c4,0.2,8,0.4,12,0.8
	c10.2,0.9,20.4,1.8,30.6,2.8c10.8,1,21.6,1.9,32.4,2.9c11,1,22,2.2,33,3c14.8,1.1,29.7,2.1,44.5,3c16.4,1,32.9,2.1,49.3,2.2
	c4,0,8,0.1,12,0.2c32.1,0.7,64.2,0.1,96.3-1.6c1-0.1,2-0.1,3-0.2c9.4-0.7,18.8-1.3,28.2-2c6.8-0.5,13.6-1,20.4-1.7
	c5-0.4,10-0.9,15-1.4c5.8-0.6,11.6-1.3,17.3-1.9c8-0.9,15.9-1.8,23.9-2.8c11.1-1.4,22.3-2.8,33.4-4.3c13.1-1.7,26.3-3.6,39.3-5.4
	c12.5-1.7,25.1-3.7,37.5-5.6c11.9-1.8,23.8-3.7,35.7-5.7c9.7-1.6,19.4-3.5,29.1-5c17.8-3,35.7-5.9,53.4-8.9c1.1-0.2,2.3-0.7,3.6-1.2
	c-0.4-1.1-0.6-2.1-1-3c-1.1-2.2-2.3-4.3-3.5-6.4c-1.3-2.3-2.3-4.7-2.7-7.3c-0.9-5.9-1.7-11.9-2.7-17.8c-0.6-3.9-0.5-8-1.9-11.8
	c-0.6-1.7-0.7-3.7-0.3-5.4c1-4.8,0.3-9.6,0.2-14.4c0-2.5,0.3-5.2-1.8-7.3c-0.4-0.4-0.4-1.5-0.5-2.3c-0.9-8.4-1.7-16.8-2.5-25.1
	c-0.3-2.8-0.1-5.7-0.2-8.4c-0.1-3.4-0.3-6.8-0.4-10.2c-0.1-1.8-0.4-3.6-0.5-5.4c-0.9-15.1-1.7-30.1-1.4-45.2
	c0.2-6.7-0.8-13.2-1.7-19.8c-1.9-13.9-3.7-27.8-5.5-41.8c-1-8.5-1.7-17.1-2.9-25.8c-0.7-5.8-1.2-11.6-1-17.4
	c0.2-3.4-0.1-6.9-1.1-10.1c-1.5-4.6-2.1-9.4-2.4-14.2c0-0.5,0.4-1.5-0.9-1.6c-0.2,2-0.3,4-0.4,6.4c-1.7-3-1.8-5.7-2-8.5
	c-0.8-12.4-1.6-24.8-2.5-37.2c-0.8-10.8-2.4-21.5-4.5-32.2c-0.9-4.5-1.9-9-1.7-13.7c0.1-1.7-0.3-3.6-0.6-5.4
	c-1.3-7.7-2.7-15.4-4-23.1c-3.3-19-6.4-38-9.9-56.9c-1.7-9-3.7-18.1-7-26.8c-1.3-3.7-3-7-5.3-10.1c-5-7-10.4-13.8-16.5-19.8
	c-7.9-7.7-15.9-15.3-23.9-22.9c-10-9.4-18.4-20.2-25.8-31.8c-6.5-10.4-10.2-21.8-10.4-34.1c0-0.8-0.3-1.5-0.3-2.3
	c-2.5-0.3-4.5,1-6.5,1.8c-9.4,4.1-18.7,8.4-28,12.6c-8.8,4.1-17,9.2-24.7,15c-2.9,2.2-5.9,4.3-9,6c-2.4,1.4-5,2.6-7.7,3.3
	c-4.3,1-8.7,1.7-13.1,2.1c-2.1,0.2-4.4-0.3-6.5-0.9c-2.7-0.7-4.3-3.2-4.2-5.9c0-0.8,0.2-1.6,0.3-2.3c1.6-7.3,4-14.3,7.8-20.8
	c4.3-7.3,9.2-14.1,15.1-20.3c3.9-4.1,8-7.9,11.9-11.9c0.5-0.5,1.3-0.9,0.8-2.2c-1.2,0.5-2.4,1.1-3.7,1.7
	c-7.2,3.6-14.4,7.1-21.6,10.6c-11.7,5.7-24.4,8.1-36.8,11.1c-3.8,1-7.6-0.3-10.9-2.5c-3-2.2-4.4-5.1-3.6-8.9
	c0.5-2.3,1.2-4.7,2.3-6.9c2-4.4,4.5-8.4,7.7-12.2c4.4-5.2,9.3-9.9,14.6-14.4c6.4-5.3,13.1-10.1,19.8-14.6
	C870.5,640.2,872.1,639.7,872.6,638c0.1-0.1,0.3,0,0.5-0.1c0.2-0.1,0.3-0.3,0.3-0.3C873.2,637.7,873,637.9,872.6,638z M363.5,1073.7
	c-0.3,1.1-0.4,1.9-0.5,2.7c-0.5,4.6-1,9.2-1.5,13.7c-1,10-2.2,19.9-3.2,29.9c-1,9-1.9,18-2.9,27c-1,9.6-2.2,19.1-3,28.7
	c-1,10.8-1.9,21.6-2.9,32.4c-1,12.4-2,24.8-3.1,37.2c-0.8,9.2-1.5,18.4-2.7,27.6c-0.9,6.5-2.5,13-3.9,19.5c-0.3,1.4-0.9,2.6-1.5,3.9
	c-0.5,1.2-1.9,1.9-2.9,1.7c-1-0.2-2.3-1.3-2.3-2.4c-0.1-1.6-0.2-3.2,0-4.8c0.4-4.4,1-8.8,1.5-13.1c0.6-6.2,1.2-12.4,1.7-18.6
	c0.7-10.4,1.1-20.9,1.7-31.2c0.3-7.2,0.6-14.4,1.2-21.7c1-13.8,2.3-27.6,3.4-41.4c0.4-4.8,1-9.6,1.4-14.4c1-9.6,2.1-19.1,3-28.7
	c1-9.6,1.9-19.1,2.9-28.8c1.2-12.4,2.3-24.8,3.5-37.2c0.5-5.6,1-11.2,1.5-16.8c1-11.2,2.1-22.4,3-33.6c1-11.8,1.9-23.6,2.9-35.4
	c1-12,2-24,3.1-36c1-10.4,1.9-20.8,3-31.1c1-10,2.2-19.9,3.3-29.9c1-8.6,2-17.1,3-25.8c1-7.7,1.9-15.6,2.9-23.3
	c1-7.6,1.9-15.1,3-22.7c1.4-9.9,2.8-19.8,4.2-29.8c1.7-12.5,3.5-25.1,5.3-37.6c2.2-14.3,4.4-28.5,6.7-42.8
	c2.8-16.8,5.7-33.6,8.8-50.4c0.4-2.3,1.1-4.7,2-6.9c1.6-4.1,3.4-8.2,5.1-12.2c0.4-1.1,0.9-2.3,1.7-3.1c3-2.9,4.6-6.6,6.6-10
	c2.5-4.1,4.5-8.5,7.3-12.4c2.9-4.2,5.5-8.4,7.9-12.8c10.2-18.7,23.5-35,38.5-49.9c15.4-15.3,34.1-22.9,55.9-23.1
	c10.7-0.1,21.2,1.6,31.5,4.3c1.9,0.5,3.8,1,5.7,1.4c1.5-1.1,2.7-2.1,4-3c4.4-3.5,9.1-6.5,14.3-8.9c12.3-5.7,25.1-9.6,38.6-10.8
	c1.7-0.2,3.7-0.1,5.4-1.4c0.7-2.2,0.3-4.6,0.4-7c0.4-6.5,1.7-12.8,5.5-18.2c5.3-7.5,11.7-13.7,20.1-17.8c5.7-2.7,11.4-5,17.3-6.9
	c19.8-6.1,40.3-9.4,61-10c6-0.2,12,0,18.1,0c1.2,0,2.4,0.1,3.6,0c1.1-0.1,1.8-0.8,2-1.8c0.2-1.1,0.9-2.3-0.4-3.7
	c-1.1-0.1-2.4-0.1-3.8-0.2c-2.8-0.1-5.7,0-8.4-0.2c-14.9-1-29.5-3-44-6.4c-18.4-4.2-36.3-10.3-53.6-17.8
	c-14.5-6.4-28.8-13.2-41.6-23c-1.7-1.3-3.4-1.9-5.1-1.5c-2-1.4-1.2-4.1-3.5-5.3c-0.9,0.9-1.9,1.6-2.4,2.6c-1.3,2.4-2.6,5-3.7,7.6
	c-1.9,4.6-3.6,9.4-5.3,14.1c-0.7,1.8-1.7,3.7-2.4,5.5c-1.2,2.8-2.6,5.4-3.7,8.3c-3.2,9.1-6.6,18.1-10.5,26.9c-1,2.2-1.8,4.4-2.8,6.7
	c-5.9,14.3-12.2,28.5-19.5,42c-1.5,2.7-3.5,4.4-6.3,5.1c-0.7,0.2-1.7,0.3-2.3,0c-1.4-0.6-2.7-0.3-4.1,0c-15,4-29.7,8.7-43.9,14.8
	c-13.5,5.8-26.4,12.8-39,20.3c-9.1,5.4-18.2,11.1-27.2,16.6c-12.9,7.8-25.3,16.3-37.7,24.9c-5.4,3.7-9.7,8.4-13.3,13.7
	c-2.1,3.1-4.3,6.4-6,9.7c-3.5,6.5-7,13.1-10,19.9c-8.3,18.3-16.4,36.6-24.5,55c-9.8,22.4-18.1,45.5-24.4,69.3
	c-4,15.3-7.3,30.9-10.8,46.3c-8.3,36.2-15.4,72.7-22.4,109.1c-3,15.9-5.9,31.9-10.4,47.6c-0.6,2.2-0.7,4.4-0.7,6.5
	c0,3.4-0.1,6.9-0.6,10.2c-2.4,16.3-5,32.5-7.7,48.7c-2.5,15.1-5.2,30-8.6,44.9c-2.6,11.3-5,22.7-7.5,34.1c-3.1,14.7-5,29.7-6.4,44.6
	c-1,10.6-1.5,21.2-1.6,31.8c-0.1,19.7,0.8,39.3,2.8,58.9c1.7,16.8,4.9,33.4,9.6,49.6c2.9,9.8,6.2,19.5,10.7,28.7
	c1,2.2,2.2,4.4,3.7,6.3c4.4,5.7,9.1,11.2,14.6,16c15.2,13.4,32.1,24.1,51.2,30.9c13.1,4.6,26.5,8.1,40.5,8.2
	c7.7,0.1,15.2-0.2,22.9-0.3c0.8,0,1.7,0,2.4-0.2c1.3-0.4,3-0.7,3.8-1.6c2.6-2.7,5.9-3.5,9.2-3.8c3-0.3,5.4-1.5,7.7-3.2
	c1.7-1.4,3.5-2.7,5.1-4.2c14-12.6,27.3-26,38.9-41.1c10.8-14,19.1-29.1,23.1-46.6c0.6-2.7,1.2-5.5,1.6-8.3
	c1.1-7.7,2.1-15.5,3.2-23.2c1-7.1,2.2-14.3,3-21.5c1.7-13.7,1.7-27.7,1.8-41.5c0.2-18.4-0.4-37-0.8-55.4c-0.1-5-0.2-10-0.3-15.1
	c0-1.1-0.3-2.3-0.6-3.7c-1,0-1.8-0.2-2.5,0c-12.2,3-24.5,4-37,4.5c-10.4,0.3-20.9,0.3-31.2-1.5c-16.7-3-32.8-7.7-47.7-16.2
	C365.5,1074.3,364.6,1074.1,363.5,1073.7z M484.1,1077.1c0.8-3.2,0.5-5.8,0.4-8.4c-0.6-19.2-1.4-38.5-2-57.8
	c-0.5-18.1-1-36.1-1.2-54.2c-0.3-24.1-0.5-48.2-0.6-72.3c-0.1-23.5,0.2-47,0.3-70.5c0-1.6,0.5-3.2-0.8-4.8c-3.3-0.3-6.6,1-9.9,1.5
	s-6.5,1.7-10.3,0.6c0.4-0.7,0.6-1.4,1-1.6c1.7-0.8,3.3-1.4,5-2.2c7.7-3.5,15.4-6.9,23-10.5c5-2.4,10.1-5,15.1-7.3
	c17.3-7.9,33-18.3,45-33.5c3.2-4.1,6.4-8.3,8.6-13.1c0.7-1.4,1.7-3,1.5-4.5c-0.3-3.3,1.4-4.9,4-5.9c3.3-1.3,6.5-3.2,10.3-3
	c1,0,2-0.3,3-0.5c6.1-1.1,12.2-2.4,18.4-3.3c15.5-2.1,31.1-4,46.6-5.8c13.4-1.6,26.6-3.6,39.9-6.4c7.4-1.7,14.8-3.8,22.1-5.7
	c0.8-0.2,1.6-0.4,1.7-1.5c-1-1.7-2.8-2.2-4.4-2.9c-7.3-3.4-15-5.7-22.9-7.3c-16-3.2-32.2-4.8-48.5-5c-3.4,0-6.8-0.1-10.3,0
	c-2.4,0.1-4.8-0.3-7-1.3c-5.7-2.5-11.4-5-17.1-7.6c-0.9-0.3-1.7-1-2.3-1.4c0.2-1.7,1.1-1.8,2.1-2c11.7-2.1,23.3-4.2,35-6.1
	c15.8-2.5,31.8-4.8,47.6-7.3c9.3-1.5,18.6-3.3,27.6-6.2c4.8-1.6,9.4-3.4,14.1-5.3c3-1.2,5.7-3.1,7.8-5.5c0.6-0.7,1-1.7,1.6-2.5
	c-2.6-3.1-6.1-4.3-9.5-5.3c-6.2-1.9-12.5-3-18.9-3.6c-10.4-0.9-20.8-1.4-31.3-1.4c-18.3,0.1-36.5-0.1-54.8,0
	c-4.4,0-8.9,0.3-13.2,0.9c-4,0.5-7.6,0.1-10.8-2.8c0.5-0.5,1-1.2,1.7-1.6c2.6-1.5,5.2-3.1,8-4.2c5.7-2.2,11.3-4.2,17.1-5.8
	c12.9-3.7,25.8-7.3,38.8-11c14.4-4.1,28.9-8.5,42.9-14.2c3.6-1.4,7-3,10.4-4.7c2.5-1.2,4.8-2.9,6.4-5.4c-0.5-0.5-0.8-1.2-1.3-1.3
	c-1.9-0.7-3.8-1.3-5.7-1.7c-6.9-1.5-13.8-2.2-20.9-2.3c-13.5-0.3-26.9,0.4-40.2,2.2c-15.7,2.1-31.2,5.3-46.7,8.6
	c-5.3,1.1-10.6,2-16,2.3c-5.4,0.3-10.8,1.1-16.1,2.1c-7.7,1.4-15.4,2.8-23.1,4.2c-1.2,0.2-2.3,0.3-3.6,0.5c-0.3,0.1-0.9,0-1.2-0.1
	c-0.3-0.2-0.7-0.4-0.8-0.8c-0.1-0.3,0-0.8,0.3-1c1.5-1.7,4.3-1.1,5.7-3.6c-1.4-6.4-0.3-13,0.8-19.5c0.4-2.8,1-3.4,3.7-3.9
	c11.4-2.3,22.4-1.1,32.8,4.3c2.6,1.4,5.1,3.1,7.5,5c1.7,1.4,3.6,1.7,5.7,1.4c2-0.3,3.9-1,5.8-1.4c3.1-0.6,5-2.5,5.8-5.4
	c0.5-1.5,0.9-3.1,1-4.7c0.4-4.4,0.7-8.8,1-13.3c-1.7-2.9-3.7-5.6-6.4-7.7c-1.6-1.2-3-2.6-4.4-4.1c-5.1-5.1-10.8-9.6-17.5-12.6
	c-1.8-0.9-3.6-1.8-5.2-2.9c-4.1-2.7-8.6-4.4-13.3-5.3c-6.7-1.3-13.4-2.8-20.1-3.8c-10.2-1.6-20.4-1.1-30.5,1.2
	c-11.5,2.6-21.2,8.4-29.6,16.5c-13.8,13.3-25.8,28-35.8,44.5c-2.8,4.6-5.7,9.2-8.7,13.7c-5.3,8.1-10.7,16.1-17.1,23.2
	c-1.2,1.3-2.2,3-2.8,4.6c-2,4.8-3.7,9.7-5.6,14.6c-0.4,1.3-0.8,2.7-1,4.1c-1.6,12.2-3.1,24.3-4.7,36.5c-1.4,10.5-2.8,21.1-4.2,31.7
	c-1.4,10.7-2.9,21.5-4.4,32.2c-1.4,10.5-2.8,21.1-4.3,31.6c-1.4,9.9-2.8,19.8-4.1,29.8c-1.4,10.8-2.8,21.5-4.1,32.3
	c-1.6,13-3.1,25.9-4.6,38.9c-1,9.1-2.1,18.4-3.1,27.5c-1,8.6-1.9,17.1-2.6,25.8c-1,12.2-1.9,24.5-2.9,36.6c-0.4,5.4-1,10.8-1.4,16.2
	c-1,11.4-2,22.8-3,34.2c-0.7,7.6-1.4,15.2-2.1,22.8c-0.6,6.6-1.1,13.2-1.6,19.8c-0.1,1.1,0.2,2.3,0.3,3.4
	c14.1,6.7,28.3,12,43.3,15.2c6.7,1.4,13.4,2.3,20.3,2.6c16.7,0.7,33.3-0.5,49.9-3C480,1078.2,481.9,1077.6,484.1,1077.1z
	 M974.3,695.1c0.3,0.9,0.6,1.3,0.6,1.7c0.1,1,0.2,2,0.1,3c-0.3,11.1,3.1,21.1,9,30.1c7,11,15.1,21.3,24.7,30.2
	c5.7,5.3,11.5,10.6,17.1,16c7.9,7.5,15,15.7,20.7,25c0.5,0.9,1,1.7,1.7,2.5c3.7,4.1,5.8,9,7.9,14.1c3.8,9.6,6.4,19.5,8.3,29.5
	c2.4,12.6,4.7,25.2,7,37.8c0.3,2,1,3.8,1.7,5.7c2.1,5.2,3.5,10.6,3.3,16.4c-0.1,3.8,0.2,7.6,0.9,11.4c2.4,13.7,4.8,27.3,7,41
	c1.3,8.1,2.3,16.3,3.2,24.5c1,8.4,1.9,16.8,2.8,25.1c1,9.4,2.1,18.7,3,28.1c1,9.2,1.8,18.4,2.7,27.6c0.1,0.8,0.3,1.6,0.6,2.3
	c2.8,1.9,5.9,2.7,9,3.1c13.6,2,27.2,2.3,40.8,0.9c11-1.2,21.8-3.1,32.5-5.8c11.3-2.9,22.4-6.6,32.1-13.2c5.4-3.7,5.8-3,3.7-10.2
	c-6.6-21.7-12.6-43.6-18.5-65.4c-5.8-21.5-11.6-43.1-19.1-64c-1.5-4.2-2.5-8.4-3.6-12.7c-2.7-10.9-5.6-21.8-9.3-32.4
	c-3.6-9.8-7-19.7-10.4-29.5c-7.8-21.9-15.7-43.9-23.6-65.7c-10.2-28.4-20-56.8-31.2-84.7c-4.2-10.4-8.6-20.8-13.3-31
	c-5.7-12.4-12.3-24.4-19.1-36.2c-6.7-11.5-13.7-22.7-21.6-33.3c-5.4-7.2-11.1-14.3-17.7-20.5c-12.4-11.8-26.5-20.8-43.2-25.4
	c-5-1.4-10.1-2.7-15.2-3.7c-9.7-1.9-19.4-3.1-29.3-2.7c-13.1,0.6-25.9,2.5-38.7,5.5c-16.2,3.7-31.4,9.7-45.6,18.3
	c-5.1,3.1-10.3,6.4-15.5,9.3c-5.2,3-7.9,7.7-9.9,13.1c-0.6,1.7,0.2,3.1,1.9,3.8c3.8,1.5,7.8,1.6,11.8,1c3-0.4,5.9-1,8.9-1.6
	c20.7-3.7,41.5-7.4,62.2-11.1c2.5-0.4,5.2-0.9,7.7-0.8c8.9,0.5,17.6,1.9,25.9,5c0.7,0.3,1.3,0.8,1.8,1.1c-0.3,1.1-1,1.5-1.8,1.6
	c-3,0.3-6.1,0.2-9,0.9c-17,4.2-33.9,8.4-50.5,13.9c-12.4,4.2-24.4,9.2-35.3,16.5c-3,2-6,4-9.5,5.2c-1.3,0.4-2.5,1.3-3.6,2.2
	c-4,3-8,6.1-11.8,9.3c-1.7,1.4-3.1,3-4.4,4.9c-0.7,0.9-0.8,2.2-1,3.4c-0.2,0.6,0.9,1.6,1.5,1.6c1,0,2,0,3-0.3
	c3.1-0.7,6.3-1.5,9.4-2.2c14.1-3.2,28.2-6.4,41.9-10.8c8.2-2.6,16.5-5,24.8-7.6c8.7-2.6,17.5-4.4,26.5-5.3c4.2-0.4,8.4-0.2,12.6-0.1
	c0.3,0,0.9,0.4,0.9,0.6c-0.1,0.5-0.2,1.3-0.6,1.5c-8.9,5.1-17.7,10.4-26.9,14.7c-8,3.7-16,7.6-23.9,11.5
	c-13.6,6.7-25.9,15.3-37.5,25c-4.4,3.7-8.6,7.8-12.4,12.3c-3,3.6-5.3,7.5-6.8,11.6c1,1.4,1.9,1.3,2.9,1c3.1-0.7,6.2-1.7,9.4-2.3
	c10.9-2.3,21.1-6.4,31.1-11.3c6.8-3.4,13.6-7,20.4-10.4c11.3-5.7,22.9-10.8,35.1-14.4c6.1-1.7,12.2-2.3,18.4-2.3
	c3.2,0,6.4,0.6,9.6,1c0.3,0.1,0.7,0.8,0.9,1.3c0.1,0.3-0.3,0.8-0.6,0.9c-1.3,0.4-2.7,0.9-4,1.2c-8.4,1.7-16.1,5-23,10.1
	c-14.4,10.6-28,22.2-40.3,35.3c-5.4,5.7-10,12.1-13.7,19.1c-1.6,3-2.8,6.2-4,9.4c-0.3,1-0.4,2,0.6,2.7c6.3,0.1,11.8-1.9,16.8-5.7
	c1.7-1.3,3.6-2.6,5.4-3.9c6.2-4.5,12.6-8.6,19.4-12.1c9.8-5,19.9-9.6,30.3-13.4c2.4-0.9,5-1.7,7.5-2.3c1.6-0.3,3.2-0.6,4.8-0.3
	C966.5,693.1,970.5,693.6,974.3,695.1z M494,289.2c-0.9,0.6-1.5,1.3-2.1,1.4c-2.3,0.2-3.6,1.7-4.4,3.6c-0.5,1.3-1,2.6-1.4,4
	c-2.3,9.5-0.8,18.3,4.5,26.5c3.2,5,7.2,9.1,12.3,12.3c8.4,5.4,16.9,10.8,26.1,14.8c2.5,1,3.5,3.5,2.4,5.9c-0.3,0.5-0.5,1-0.8,1.6
	c-4,8.3-3.7,16.3,1,24.1c3.1,5.2,7.1,9.7,12.2,13.2c6.7,4.6,13.9,8,21.6,10.5c0.7,0.3,1.6,0,2.3,0c1.6-2.5,2.4-5.2,3.5-7.8
	c2.5-6.5,4.9-13.1,7.5-19.7c1.5-3.7,3.1-7.4,5-10.9c2.7-4.7,6.6-8,12.1-9.2c0.8-0.2,1.5-0.4,2.3-0.6c0.3-0.7,0.5-1.2,0.7-1.7
	c1.6-6,3-12.1,4.7-18c3.9-13.9,8.1-27.8,10.5-42c0.2-1,0-1.9,0-3.1c-2-0.6-3.9-1.2-5.7-1.8c-6.5-2.3-12.4-5.7-17.1-11
	c-4.4-4.8-6.6-10.4-6.7-17c-0.1-4.7,0.5-9.2,1.6-13.7c1.7-7.1,4.7-13.7,9.7-19.1c5.7-6.4,12.8-10.2,21.6-10.4c1.3,0,2.7-0.3,3.9-0.3
	c0.5-1.5-0.3-2.2-0.8-3.1c-0.7-1.5-1.4-2.9-2-4.4c-0.1-0.3,0.1-0.8,0.3-1c0.2-0.2,0.8-0.3,1-0.2c2.3,1.3,4.5,2.6,6.6,4.2
	c8.4,6,17.6,10.6,27.8,12.6c7.9,1.6,15.8,2.9,23.8,3c7.2,0.1,14.4,0.2,21.7-0.1c12.7-0.3,25.1-2.5,37.2-6.3c7-2.2,13.3-5.5,19.1-9.8
	c7.1-5.4,13-12,17.9-19.4c5-7.3,9.4-15,13.4-22.8c0.7-1.3,1-3,3-3.7c-0.1,1-0.1,1.7-0.3,2.5c-1.1,4.9-2.1,9.8-2.3,14.9
	c-0.3,5.7-1.4,11.1-2.5,16.6c0,0.2-0.1,0.3-0.2,0.6c-1.5,10.4-0.8,20.4,4.3,29.8c6.4,11.6,14.4,21.8,25,29.8
	c0.7,0.5,1.5,1.4,2.9,0.8c0.3-0.5,0.7-1.1,1-1.9c4.8-10.6,9.6-21.2,14.4-31.8c1.7-3.7,3.3-7.3,5-11c0.3-0.6,0.7-1.5,2-0.7
	c-1,4.4-2.1,8.9-3.2,13.3c-3.5,14.3-7,28.5-12.6,42c-1.3,3.1-2.1,6.4-3,9.5c2.8,7.2,3.3,9.1,4.1,16.6c1,10.5-1.7,19.9-8.5,28
	c-4.2,5-9,9.1-14.9,12.1c-2.5,1.3-4,3-5,5.7c-4.1,11.1-8.5,22.1-12.5,33.2c-5,13.9-9.9,28-14.7,42c-0.6,1.8-1.8,3.7-1,6
	c1.9,1.6,4.2,2.8,6.9,3c4,0.3,8,0.7,12,1c3.8,0.3,7.6,0.6,11.4,0.9c3.6,0.3,7.2,0.6,10.8-0.2c3.9-0.9,7.8-1.7,11.9-1.7
	c3.4-0.1,6.1-1.8,8.6-3.8c2.8-2.3,5.5-4.8,6.2-8.5c-0.3-0.6-0.4-1.2-0.7-1.7c-7.4-12.8-9.4-26.7-8.2-41.2c0.7-7.9,2.8-15.4,6.1-22.5
	c3.7-8,7.4-16,11.4-23.9c7.7-15.2,14.5-30.9,20.3-46.9c4-11.1,7.9-22.4,10.2-34c2.3-12.2,2.5-24.3-0.4-36.5
	c-3.1-12.9-8.4-24.6-16.2-35.3c-6.5-9.5-14.9-17.1-24.5-23.6c-5-3.4-10.4-6-16.2-7.9c-1.5-0.5-3-0.8-4.4-1.1c-2,1.9-1.1,5.5-4.5,6.4
	c-0.5-1-1-1.8-1.3-2.8c-2-5.7-5.3-10.8-8.4-15.9c-2.8-4.5-6.6-8.1-11.1-10.9c-4.4-2.8-9.1-5-13.9-7.1c-18.4-8.1-37.2-9.5-56.5-4.4
	c-14.5,3.7-28,9.7-40.9,17.3c-9.1,5.4-17.9,11.5-26.5,17.8c-8.6,6.4-16,14-22.3,22.6c-3.7,5-7,10.3-10.5,15.4
	c-3.3,4.8-6.4,9.7-9.8,14.4c-4.5,6.3-10,11.5-16.5,15.7c-4.6,3-9.7,4.8-15.1,5.8c-9,1.7-18,0.8-27-0.7c-8.7-1.5-17.1-4.4-25.4-7.3
	c-5.5-1.9-11-3.9-16.5-5.7c-7.8-2.5-15.5-1.8-22.8,1.9c-7.3,3.7-14.3,8.2-20.8,13.3c-2.3,1.7-4,3.9-5.4,6.4
	c-2.9,5-4.2,10.4-3.8,16.2c0.3,4.1,1.5,7.8,3.4,11.5c3.8,7.4,9,13.8,15.3,19.1c3.4,2.8,7,5.4,10.5,8
	C487.3,283.1,490.6,285.9,494,289.2z M890.5,432.3c0.1,0.3,0.3,0.6,0.3,0.9c1.5-0.5,3-1,4.4-1.6c18-7.6,36.5-13.5,55.3-18.4
	c16.9-4.4,33.8-8.5,50.7-12.8c26.6-6.8,53.1-14.4,78.8-23.9c13.6-5,26.9-10.5,39.7-17.4c8.2-4.4,15.7-9.6,22.4-16.2
	c4.2-4.2,7.4-9,9.6-14.4c1.4-3.6,2.6-7.1,3.5-10.9c3-13.5,0.5-25.9-8.2-36.9c-2.3-2.8-4.7-5.5-7.3-8c-9.3-9-20.5-14.5-33-17.9
	c-9.2-2.5-18.5-3-28-1.2c-9.9,1.8-19.4,5-28.7,8.8c-3.9,1.7-7.9,2.8-12,3.9c-5.7,1.6-5.7,0.3-4.4-4.7c2.7-9.6,3.7-19.3,2.7-29.2
	c-0.5-5.8-2.1-11.4-4.8-16.7c-3.7-7.2-9-12.7-16.6-15.9c-2.8-1.2-5.6-2.3-8.4-3.1c-12.4-3.6-24.5-3-36.3,3
	c-5.6,2.9-10.9,6.1-15.7,10.1c-9,7.4-15.8,16.4-20.1,27.3c-4,10-6,20.4-6.2,31.1c-0.2,13.7,1,27.2,1.7,40.9
	c0.8,15.5,0.3,30.9-2.8,46.1c-2.7,13.8-7,27.1-12.6,40.1c-5.1,11.9-11.9,22.7-20.4,32.5C893.1,429.2,891.8,430.7,890.5,432.3z
	 M866.4,455.8c2.3,0.4,4.1,0.8,5.8,1.1c2.7,0.6,5.6,1.1,8.2,2.1c2.3,0.8,4.4,2,6.4,3.4c3.8,2.8,4.9,6.8,3.6,11.2
	c-0.5,1.9-1.7,3.7-2.8,5.3c-2,2.9-5,4.7-8.2,5.9c-4.4,1.6-8.5,3.5-12.6,5.7c-1,0.5-2.2,1-3.3,1.3c-11.1,3.7-22.4,6.3-33.9,7.9
	c-10.1,1.4-20.3,2.5-30.5,3.8c-12.5,1.7-25.1,2.4-37.8,3c-10.3,0.5-20.4,0.5-30.7,0.5c-12.3,0-24.5-0.6-36.6-2.7
	c-6.5-1.1-13-2.6-19.2-5c-5.6-2.1-10.4-5.1-14.4-9.5c-1.3-1.5-2.6-3-3.5-4.9c-1.9-3.6-1.6-7,1.1-10.1c1.3-1.5,2.9-2.8,4.5-3.9
	c7.7-5.2,16.1-9,25-11.7c7.3-2.1,14.7-4.1,22.2-5.7c14.5-3.1,29.2-5.3,44.1-5.5c3.6-0.1,7.2-0.4,10.8-0.6c9.8-0.4,19.7-0.6,29.5,0.3
	c8.2,0.8,16.4,1.7,24.6,1.4c8.6-0.3,17.2,0.7,25.8,1.9c7.9,1.1,7.9,1.1,14.3-3.6c0.3-0.3,0.7-0.4,1-0.8c0.3-0.4,0.4-1,0.8-1.7
	c-4.5-0.1-8.7-0.2-12.9-0.3c-4.4-0.2-8.8-0.6-13.2-0.9c-9.4-0.7-18.8-1.4-28.2-2.3c-6.4-0.5-12.8-1.5-19.1-2
	c-6.6-0.5-13.2-0.7-19.8-0.9c-4.4-0.1-8.8,0-13.2,0.2c-3.6,0.1-7.2,0.3-10.8,0.5c-2.4,0.2-4.8,0.4-7.2,0.6
	c-16.4,0.9-32.7,3.2-48.7,7.4c-8.7,2.3-17.3,5-25.6,8.7c-6.2,2.8-11.3,6.7-15.7,11.8c-3.7,4.3-6,9-6.7,14.5c-0.3,2.2-0.8,4.4-1,6.5
	s-0.2,4.3-0.3,6.6c-3.8,1.2-7.5,2.3-11.1,3.6c-3.7,1.4-7.6,2.5-11.6,3.3c-6.1,1.2-12,3.1-17.8,5.4c-6.4,2.4-12.6,5.3-18.1,9.4
	c-0.6,0.4-1,1.1-1.4,1.6c0.3,0.4,0.3,0.7,0.4,0.8c0.5,0.3,1,0.7,1.5,1c9,4.2,17.2,9.4,24.6,16c0.5,0.5,1.4,0.7,1.8,1
	c0.7-0.1,1.1-0.1,1.5-0.3c1-0.3,1.8-0.7,2.8-1.1c10.2-4.7,20.8-7.2,31.9-7.9c2.3-0.2,4.4-0.1,6.4,1c1.2,0.6,1.5,2.2,0.3,3
	c-2.5,1.7-5,3.3-8,3.9c-1,0.2-2,0.2-2.6,1.5c3.7,11.7,9.4,22.7,14.6,34.2c1.2,0,2.4,0.1,3.6,0c2.2-0.2,4.4-0.6,6.6-0.7
	c10.4-0.4,20.9-0.7,31.3,0.2c5.4,0.4,10.8,1.3,16.1,2.3c3,0.5,5.8,1.7,8.5,2.9c1.7,0.8,3.5,2.1,4.8,3.5c2.5,2.7,3.2,6,1.5,9.4
	c-0.8,1.6-1.9,3.1-3,4.4c-2.8,3.2-6.1,5.9-9.9,7.7c-5,2.3-10,4.3-14.9,6.4c-1,0.4-2.4,0.4-2.6,2.3c36.9,24.6,76.7,31.8,119.8,20.4
	c5.6-8.3,12.9-14.5,20.6-20.3c7.6-5.7,15.5-10.8,23.8-15.2c0.8-0.4,1.8-0.6,1.8-2.1c-1,0.2-2,0.3-3,0.4c-5.4,0.8-10.7,1.7-16.1,2.3
	c-5.3,0.6-10.4-0.7-15.1-3c-2.6-1.3-4.5-3.2-5.9-5.8c-0.7-1.3-1-2.7-0.5-4.1c1.7-4.3,3.4-8.5,6.8-11.9c9.5-9.6,19.5-18.5,30.8-25.9
	c2.7-1.7,5.5-3.3,8.4-4.7c10.9-5.3,22.4-8.8,34.2-11.5c4.9-1.1,9.8-2,14.9-3c0.5-1,1.2-1.9,1.7-3c3.7-7.8,7-15.8,10.4-23.8
	c2.9-6.7,3.7-13.5,3.6-20.5c0-5.1-1.8-9.5-6-12.5c-2.8-2-5.7-3.7-8.6-5.4c-2.6-1.5-5.5-2.5-8-4.2c-8.3-5.1-17.6-6.5-26.9-8
	c-2.3-0.3-4.4,0.1-6.4,1.2c-2.3,1.3-4.6,2.4-6.9,3.7C867.9,454.3,867.4,454.9,866.4,455.8z M774.6,213.1c-1.7,1.7-2.6,2.6-3.6,3.6
	c-9,9.3-19.6,15.9-31.9,19.7c-12.4,3.7-25,5.8-37.8,6.4c-6.6,0.3-13.2,0.3-19.8,0.2c-12.1-0.2-24-1.7-35.5-5.6
	c-1.3-0.4-2.9-0.9-4.1-0.5c-2.6,0.7-4.7-0.2-6.9-1.4c-5-3-10.4-3.7-16.2-3.7c-6.1,0-10.9,2.4-14.8,6.9c-2.4,2.7-4.2,5.8-5.6,9.2
	c-2,5.1-2.7,10.4-2.8,15.9c-0.1,4.8,1.8,8.5,5.1,11.7c3.1,3,6.7,5.2,10.6,6.7c3.6,1.4,7.2,2.4,10.9,3.6c1.9,0.6,3.8,1.1,5.7,1.7
	c1,0.3,1.9,0.7,2.8,1.2c1,0.6,2,1.6,1.9,2.9c-0.1,1.3-1.1,2.1-2.3,2.5c-1.1,0.3-2.3,0.4-3.5,0.7c-1,0.3-1.8,0.5-2.5,0.8
	c-0.3,0.7-0.5,1.1-0.6,1.5c-0.8,9.5-3,18.6-5.5,27.8c-3.7,13.4-7.5,26.6-11.1,40c-0.3,1.3-0.6,2.7-1,4.1c1.2,0.8,2.2,1.5,3.1,2.1
	c10.3,6.3,21,11.8,32,16.6c15.8,6.9,31.8,13.2,48.6,17.8c21.6,5.9,43.6,8.9,65.7,11.6c1.4,0.2,2.8,0,4.1,0c1.8-2.3,2.2-5,3-7.4
	c8-25.8,19.4-55.9,26.9-74.7c7.7-19.6,15.6-39.2,23.3-58.7c0.2-0.3,0.1-0.8,0.2-1.5c-0.6-0.5-1.3-1.2-2.1-1.8
	c-11.9-8.1-20.7-18.9-28-31.1c-3.7-6.1-6.2-12.6-7.1-19.7C775.3,219.6,775,216.8,774.6,213.1z M839.8,459.3
	c-1.7-0.3-2.3-0.6-2.9-0.6c-13.5-0.3-26.9-0.8-40.4-1c-14.4-0.3-28.9-0.4-43.3,0.5c-19.5,1.2-38.7,4.3-57.7,8.9
	c-7.5,1.8-14.6,4.4-21.6,7.6c-2.5,1.2-5,2.5-7,4.6c-0.6,0.7-1.1,1.6-1.7,2.4c2.8,3.7,6.3,6,10.2,7.7c4.3,1.8,8.8,2.9,13.3,3.7
	c11.7,2.3,23.5,2.8,35.3,3.3c16.3,0.7,32.5-0.7,48.7-1.3c4.8-0.2,9.7-0.7,14.4-1.1c13.6-1.4,27.1-3,40.7-4.4
	c7.4-0.9,14.8-1.6,21.8-4c1.1-0.3,2.3-0.7,3.5-0.9c8-1.3,15.3-4.9,22.9-7.3c1.1-0.3,2.3-1,3.1-1.7c1.1-0.9,2.1-1.8,3-3
	c1.4-1.8,0.9-4-1.4-4.9c-2.1-0.8-4.2-1.4-6.4-1.8c-4.4-0.9-8.7-1.5-13.1-2.3c-4.4-0.9-8.7-0.9-13,1.1c-1.5,0.7-3,1.1-4.5,1.6
	c-5.4,1.6-10.9,3-16.5,3.1c-0.4,0-1-0.4-1.8-0.9C830.1,465.3,835,463.3,839.8,459.3z M613,546.2c5,9.7,9.7,19.1,11.1,30.5
	c7.1-0.5,13.9-2,21.1-3.1c-0.4-1-0.7-1.8-1-2.4c-4.4-6.1-7.4-12.9-9.9-19.8c-1.1-3.2-2-6.5-3-9.7c-0.5-1.7-1.6-2.3-3.2-1.7
	c-3.6,1.3-7.1,2.7-10.6,4.2C615.9,544.4,614.6,545.3,613,546.2z M551.6,594.3c5.4-1.2,10.6-2.3,15.8-3.6c3.7-0.9,7.4-1.8,11.1-2.9
	c1-0.3,1.8-0.7,2.7-1c-0.3-0.6-0.3-1.1-0.6-1.3c-7.6-4.4-15.8-6.5-24.5-7.5c-1.9-0.2-3,0.9-3.7,2.4
	C550.6,585,550.2,589.4,551.6,594.3z M947.2,523.7c0-0.2,0.2-0.4,0.1-0.5c-4.1-4.3-8.4-8.3-12-13.1c-0.1-0.1-0.3-0.1-0.5-0.2
	c-3.8,6.2-6.2,11.2-6.9,14.3C931.3,524.7,943.3,524.4,947.2,523.7z M806.1,324.1c0.2,0,0.4,0,0.5-0.1c6.2-5.8,8.8-13.1,8.6-21.4
	c0-0.2-0.6-0.3-0.9-0.5C811.4,308.7,807.1,319.9,806.1,324.1z M614.6,567.8c0.5,4.4-1,7.4-0.3,10.5c3.1-0.2,3.7-0.6,3.2-2.9
	C617,573.2,617.1,570.8,614.6,567.8z"/>
<path id="XMLID_928_" d="M970.5,121.7c10.4,0.3,18.5,4.4,23.8,13.6c3,5.1,3.6,10.5,1.5,16.2c-1.6,4.2-3.7,7.9-6.9,11.1
	c-5.2,5.5-11.7,7.5-19.1,6.3c-4.5-0.7-9-2-13.1-4c-2.7-1.3-5.2-3-7.3-5.2c-3.3-3.7-4.6-7.8-3.6-12.8c0.7-3.1,1.2-6.3,1.9-9.4
	c1.2-5.3,4.4-9.4,9-12.2C960.9,122.8,965.6,121.6,970.5,121.7z M969.9,132c-3.6-0.1-6.7,0.9-9.8,2.5c-1.8,1-3.2,2.4-3.8,4.4
	c-0.9,2.9-1.7,5.7-2.3,8.7c-0.6,2.6,0.4,4.8,2.4,6.4c1.2,1,2.6,1.9,4.1,2.5c2.4,1,4.9,1.9,7.4,2.4c9.2,2,13.1,0.3,17.7-9
	c0.3-0.5,0.3-1.1,0.6-1.7c1-2.4,0.7-4.7-0.4-7C982.3,134.9,976.7,132.4,969.9,132z"/>
<path id="XMLID_927_" d="M282.5,1346.6c0,0.3,0.1,0.5,0,0.6c-0.1,0.1-0.3,0.2-0.4,0.2c-0.3-0.3-0.7-0.7-1-1c0,0,0.3-0.4,0.3-0.3
	C281.7,1346.2,282.2,1346.4,282.5,1346.6z"/>
<path id="XMLID_926_" d="M1241.4,1116.4c0.3,0.3,0.4,0.5,0.7,0.7c-1,0.3-0.4-0.5-0.5-0.8L1241.4,1116.4z"/>
<path id="XMLID_925_" d="M910.4,474.2c0.3,0.9,0.7,1.6,0.5,1.8c-0.8,1.4-1.6,2.8-2.6,4c-9,10.9-20.7,17.4-34.5,20.3
	c-1.9,0.4-3.8,1-5.7,0c-0.1-1.1,0.7-1.6,1.4-1.9c2.5-1.1,5.2-2.1,7.7-3.1c4.8-2,9.7-3.8,14.4-6c6.4-3,12.1-7,16.4-12.8
	C908.6,475.8,909.4,475.2,910.4,474.2z"/>
<path id="XMLID_924_" d="M759.4,296.1c0,1.8,0.3,3.7,0,5.4c-1,6.5-4.4,11.2-11.1,12.7c-3.3,0.8-6.7,1-10.1,1.4
	c-0.4,0.1-1.2-0.4-1.4-0.8c-0.2-0.4-0.1-1.1,0.2-1.7c0.9-1.8,2.5-3.1,4.1-4.4c1.4-1.1,2.9-2.3,4.2-3.4c2.3-2,3.2-4.4,3.2-7.5
	c0.2-8.1-1.1-16-3-23.8c-0.5-1.9-1.1-3.8-1.6-5.8c-0.5-2.3-0.7-4.8-0.1-7.1c0.6-2.3,2.8-3.7,5-3.3c1.7,0.3,3,1.3,3.4,3
	c2.3,9.5,5.9,18.7,7,28.6c0.3,2.2,0.3,4.4,0.4,6.6C759.6,296.1,759.5,296.1,759.4,296.1z"/>
<path id="XMLID_923_" class="st1" d="M697.6,293.4c0-5.2,1.7-7.9,4.8-8.4c2.6-0.4,5.1,1.4,6.5,5c0.6,1.5,1,3,1.4,4.6
	c1.9,7.2,5.5,13.3,11.3,18.1c1.2,1,2.3,2.3,3.2,3.6c1,1.3,0.7,3.2-0.5,4.4c-1.2,1.1-2.6,1.8-4.4,1.9c-4.6,0.3-8.4-1.7-11.6-4.8
	C701.4,310.7,698.1,302.1,697.6,293.4z"/>
<path id="XMLID_922_" d="M713.7,267.4c-0.2-0.6-0.4-1.4-0.4-2.2c-0.2-4.9,0.8-9.6,1.7-14.3c0.2-1.1,0.9-2.3,1.5-3.2
	c1-1.4,2.5-1.8,4.3-1.7c1.7,0.3,3,1.3,3.5,2.9c0.3,1.1,0.5,2.3,0.4,3.6c-0.4,4.6-1,9.1-1.6,13.7c-0.3,2-1.4,2.8-3.4,2.4
	C717.8,268.4,715.7,268.6,713.7,267.4z"/>
<path id="XMLID_921_" d="M789.2,265.1c-0.4,5-1.7,9.6-4.4,13.7c-0.7,1.1-1.7,1.4-3.1,1c-1-0.3-1.9-0.6-2.8-1c-2.6-1-3.1-2-2.2-4.5
	c1.3-3.7,2.7-7.5,3.1-11.5c0.2-1.4,1-2.6,2.3-3.3c2.3-1.3,5.5-0.2,6.4,2.3C788.8,263,789,264.3,789.2,265.1z"/>
<path id="XMLID_920_" d="M610,252.9c1.7-0.1,2.9-0.2,4.4-0.3c0-1.9,0-3.7,0-5.5c0-0.8,0.2-1.6,0.4-2.3c0.1-0.3,0.5-0.7,0.8-0.7
	c0.5,0,1.2,0.1,1.7,0.3c0.4,0.3,0.8,1,1,1.5c1.9,6.4,2.3,13,1,19.5c-0.3,1.3-1,2.6-1.8,3.7c-0.3,0.5-1.5,0.8-2.1,0.6s-1.5-1-1.6-1.6
	c-0.3-1.3-0.3-2.8-0.1-4.2c0.4-2.5,0.2-4.7-2-6.5c-0.7-0.6-1.1-1.7-1.5-2.5C609.9,254.5,610,253.9,610,252.9z"/>
<g id="XMLID_917_">
	<path id="XMLID_1724_" d="M642,199.1c0,0,2.3,0.4,6.4,1.1c2,0.3,4.5,0.8,7.4,1.2c2.9,0.3,6,1,9.6,1.4c3.5,0.4,7.3,1,11.3,1.2
		c2,0.2,4.1,0.3,6.2,0.5c2.1,0.1,4.3,0.2,6.4,0.3c2.2,0.2,4.4,0.1,6.7,0.1c2.3-0.1,4.5,0.1,6.9-0.1c2.3-0.1,4.6-0.3,7-0.3
		c2.3-0.1,4.6-0.4,7-0.7l3.5-0.3l3.5-0.5c1.1-0.2,2.3-0.3,3.5-0.5c1.1-0.2,2.3-0.3,3.4-0.6c2.3-0.5,4.4-1,6.7-1.5
		c2.2-0.5,4.3-1.2,6.4-1.8c1-0.3,2.1-0.6,3.1-1c1-0.3,2-0.7,3-1.1c2-0.7,3.9-1.4,5.8-2.2c3.7-1.7,7.2-3,10.3-4.8
		c1.6-0.9,3-1.7,4.4-2.3c1.4-0.8,2.6-1.7,3.9-2.4c1.2-0.8,2.3-1.5,3.4-2.2c1-0.6,1.9-1.4,2.8-2c3.3-2.4,5.2-3.8,5.2-3.8
		s-1.7,1.6-4.8,4.4c-0.8,0.7-1.6,1.6-2.6,2.3c-1,0.8-2.1,1.6-3.2,2.4c-1.1,0.9-2.3,1.8-3.7,2.8c-1.4,0.9-2.9,1.7-4.4,2.7
		c-3,2-6.5,3.7-10.2,5.5c-1.8,0.9-3.8,1.7-5.8,2.4c-1,0.4-2,0.8-3,1.2c-1,0.3-2.1,0.7-3.1,1c-2.2,0.7-4.3,1.4-6.5,2
		c-2.3,0.5-4.5,1.1-6.8,1.7c-1.1,0.3-2.3,0.5-3.5,0.7c-1.1,0.2-2.3,0.4-3.5,0.6l-3.6,0.6l-3.6,0.3c-2.3,0.2-4.8,0.5-7.1,0.6
		c-2.3,0.1-4.8,0.2-7.1,0.3c-2.3,0.1-4.7,0-7-0.1c-2.3,0-4.6-0.1-6.8-0.3c-2.3-0.2-4.4-0.3-6.5-0.5c-2.2-0.3-4.2-0.5-6.3-0.8
		c-4.1-0.4-7.8-1.2-11.4-1.8c-3.5-0.6-6.7-1.5-9.5-2.1c-1.4-0.3-2.7-0.6-3.9-1c-1.2-0.3-2.3-0.7-3.3-1
		C644.4,199.7,642,199.1,642,199.1z"/>
</g>
<g id="XMLID_914_">
	<path id="XMLID_1721_" d="M529.7,355.4c4.2-0.8,8.3-1.7,12.4-2.5c4.1-0.9,8.2-1.8,12.2-3c4-1,8-2.3,11.9-3.7
		c1.9-0.7,3.9-1.4,5.8-2.3c1.9-0.8,3.8-1.7,5.7-2.5s3.7-1.9,5.4-2.9c1.7-1,3.5-2.1,5.2-3.2c1.7-1.1,3.3-2.3,4.9-3.7
		c1.6-1.3,3-2.7,4.5-4.1c1.4-1.4,2.8-3,4.1-4.4l1.9-2.3l1.7-2.4l1.7-2.5l1.6-2.6l1.4-2.7l1.3-2.8l8.8-18.3l-4,19.8
		c-1.3,6.4-3.1,12.8-6.2,18.8c-0.8,1.5-1.6,3-2.4,4.4c-0.9,1.4-1.8,2.8-2.8,4.1c-1.9,2.7-4.1,5.1-6.4,7.5s-4.6,4.6-7,6.7
		c-2.4,2.2-4.8,4.3-7.2,6.4l-14.6,12.4c2.1-2.4,4.2-4.9,6.4-7.2c2.2-2.3,4.4-4.7,6.6-7c4.4-4.6,9-9.1,13.1-13.8c1-1.2,2-2.4,3-3.7
		c1-1.2,1.8-2.4,2.7-3.7c0.9-1.3,1.7-2.6,2.4-3.9c0.8-1.3,1.5-2.7,2.1-4.1c1.3-2.8,2.4-5.7,3.3-8.6s1.7-6,2.2-9l4.7,1.5l-1.4,3
		l-1.6,2.9l-1.7,2.8l-1.8,2.7l-1.9,2.6l-2.1,2.5c-1.4,1.7-2.9,3.2-4.4,4.8c-1.6,1.5-3.2,3-5,4.3s-3.5,2.6-5.3,3.7
		c-1.8,1.2-3.7,2.3-5.6,3.3c-1.9,1-3.8,1.9-5.8,2.8c-3.9,1.7-8,3.1-12,4.4c-4.1,1.2-8.3,2.2-12.4,3c-2.1,0.4-4.2,0.8-6.3,1
		c-2.1,0.3-4.2,0.6-6.3,0.9C538.2,354.8,533.9,355.1,529.7,355.4z"/>
</g>
<g id="XMLID_911_">
	<path id="XMLID_1718_" d="M657.4,157.8c0,0,1.8-1.2,5-3.3c1.7-1,3.5-2.3,5.9-3.6c2.3-1.2,5-2.8,7.9-4.2c1.5-0.7,3-1.4,4.6-2.2
		c1.6-0.8,3.3-1.5,5-2.1c1.7-0.7,3.6-1.4,5.4-2.1c1.8-0.8,3.8-1.2,5.7-1.8c3.9-1.3,8.1-2.3,12.3-3.1c2.1-0.5,4.3-0.7,6.4-1.1
		l3.2-0.5c1.1-0.2,2.2-0.3,3.3-0.3c2.2-0.2,4.4-0.4,6.6-0.5c2.2,0,4.4-0.1,6.5-0.1c2.2-0.1,4.4,0.2,6.4,0.3c1,0.1,2.1,0.2,3.1,0.2
		c1,0.1,2.1,0.3,3.1,0.4c2.1,0.3,4.1,0.5,6,0.9c1.9,0.4,3.8,0.9,5.7,1.3c1.8,0.3,3.6,1,5.3,1.6c0.9,0.3,1.7,0.5,2.5,0.8
		c0.8,0.3,1.7,0.5,2.3,0.9c3,1.3,5.9,2.3,8.2,3.7c1.1,0.6,2.3,1.2,3.3,1.8c0.5,0.3,1,0.5,1.5,0.8c0.4,0.3,0.9,0.6,1.2,0.9
		c3.1,2.2,4.9,3.5,4.9,3.5s-2-1-5.4-2.6c-0.4-0.2-0.9-0.4-1.3-0.7c-0.5-0.2-1-0.3-1.6-0.6c-1-0.4-2.2-0.9-3.4-1.3
		c-0.6-0.3-1.2-0.5-1.9-0.8c-0.6-0.3-1.3-0.4-2-0.6c-1.4-0.4-2.9-0.9-4.4-1.4c-0.8-0.3-1.6-0.4-2.3-0.6c-0.8-0.2-1.7-0.3-2.5-0.5
		c-1.7-0.3-3.4-0.9-5.2-1.1s-3.7-0.6-5.6-0.9s-3.8-0.3-5.8-0.6c-1-0.1-2-0.2-3-0.3c-1,0-2-0.1-3-0.1c-1,0-2.1-0.1-3.1-0.1
		c-1-0.1-2.1-0.1-3.1,0c-2.1,0.1-4.2,0.1-6.4,0.2c-2.1,0.1-4.3,0.3-6.4,0.6c-1,0.1-2.1,0.2-3.1,0.3l-3.1,0.4c-2.1,0.3-4.2,0.5-6.3,1
		c-2.1,0.4-4.1,0.9-6.1,1.2c-2,0.3-4,1-5.9,1.4c-1.9,0.5-3.8,1-5.7,1.5c-1.8,0.5-3.7,1.1-5.4,1.7c-0.9,0.3-1.7,0.5-2.6,0.8
		c-0.9,0.3-1.7,0.6-2.5,0.9c-1.7,0.6-3.2,1.1-4.8,1.7c-1.6,0.5-3,1.1-4.3,1.7c-1.4,0.5-2.7,1-3.9,1.6c-2.4,1-4.5,1.9-6.3,2.7
		C659.4,157,657.4,157.8,657.4,157.8z"/>
</g>
<g id="XMLID_908_">
	<path id="XMLID_1715_" d="M637.3,183.9c0,0,2.2-0.9,6.1-2.3c1.9-0.7,4.3-1.7,7-2.5c2.7-1,5.8-2,9.2-3s7-2.2,11-3.2
		c3.9-1.1,8.1-2.2,12.4-3.2c2.2-0.5,4.4-1,6.6-1.5c2.3-0.5,4.4-1,6.8-1.5c2.3-0.4,4.6-0.9,7-1.3c2.3-0.4,4.7-0.8,7-1.2
		c2.3-0.3,4.7-0.7,7-1c2.3-0.3,4.7-0.6,7-0.9c4.6-0.5,9.2-0.9,13.7-1.1c4.4-0.3,8.8-0.3,12.8-0.4c4.1,0,7.9,0,11.5,0.3
		c1.7,0.1,3.5,0.2,5.1,0.3c1.7,0.1,3.1,0.3,4.6,0.4c2.9,0.3,5.4,0.5,7.4,0.9c4.1,0.6,6.4,1,6.4,1s-2.3,0.1-6.5,0.3
		c-2.1,0-4.5,0.2-7.4,0.3c-2.9,0.1-6.1,0.3-9.6,0.5c-1.7,0.1-3.6,0.2-5.5,0.4c-1.9,0.2-3.8,0.3-5.8,0.4c-2,0.2-4.1,0.4-6.2,0.6
		c-1,0.1-2.1,0.2-3.2,0.3c-1,0.1-2.2,0.3-3.2,0.3c-2.2,0.3-4.4,0.4-6.6,0.8c-2.3,0.3-4.5,0.6-6.8,0.9c-2.3,0.3-4.5,0.7-6.9,1
		c-2.3,0.3-4.6,0.7-7,1c-2.3,0.3-4.6,0.7-7,1c-2.3,0.4-4.6,0.8-6.9,1.2c-4.5,0.9-9,1.6-13.3,2.4c-4.4,0.8-8.5,1.7-12.4,2.3
		c-4,0.8-7.7,1.5-11.1,2.2c-7,1.4-12.7,2.4-16.8,3.3C639.6,183.5,637.3,183.9,637.3,183.9z"/>
</g>
<g id="XMLID_905_">
	<path id="XMLID_1384_" d="M813,387.6c-1.4-1.8-2.9-3.7-4.3-5.5c-0.7-1-1.4-1.9-2-2.9c-0.7-1-1.3-1.9-1.9-3c-0.6-1-1.2-2-1.8-3
		c-0.6-1-1.1-2.1-1.7-3.1s-1-2.2-1.4-3.3c-0.4-1.1-0.8-2.3-1.1-3.4c-0.3-1.1-0.6-2.3-0.8-3.5c-0.2-1.2-0.4-2.3-0.5-3.6
		c-0.2-1.2-0.3-2.3-0.3-3.6c-0.1-1.2-0.1-2.3-0.1-3.6c-0.1-4.7,0.3-9.3,0.6-13.9l3.6,1l-1,2.2l-1,2.3c-0.6,1.5-1.1,3-1.7,4.5
		c-0.5,1.6-1,3.1-1.3,4.7c-0.3,1.6-0.7,3.1-1,4.8c-0.3,1.6-0.4,3.2-0.6,4.8c-0.2,1.7-0.3,3.2-0.3,4.9c-0.1,3.2,0,6.5,0.3,9.7
		c0.3,3.2,0.7,6.5,1.2,9.7c0.5,3.2,1.1,6.5,1.9,9.7c1.4,6.4,3.2,12.9,5,19.3c-1.3-3-2.5-6.2-3.7-9.3c-1.1-3.1-2.2-6.3-3.1-9.5
		c-1.9-6.4-3.5-13-4.3-19.7c-0.4-3.3-0.6-6.7-0.6-10.1s0.2-6.8,0.7-10.2c0.3-1.7,0.6-3.4,1-5c0.4-1.7,0.9-3.3,1.3-5
		c0.5-1.7,1.1-3.2,1.7-4.9c0.6-1.6,1.4-3.1,2.1-4.7l4.3-8.6l-0.7,9.6c-0.2,2.3-0.3,4.6-0.5,6.9c-0.1,1.1-0.2,2.3-0.2,3.4
		c-0.1,1.1-0.1,2.3-0.2,3.4c0,1.1-0.1,2.3,0,3.4c0,1.1,0,2.3,0.1,3.4s0.2,2.3,0.3,3.3c0.1,1.1,0.3,2.2,0.5,3.3
		c0.3,1,0.5,2.2,0.9,3.2c0.3,1,0.7,2.2,1.1,3.2c0.3,1,0.8,2.1,1.3,3.1c0.4,1,1,2.1,1.5,3c1,2.1,2.1,4.1,3.2,6.1L813,387.6z"/>
</g>
<g id="XMLID_902_">
	<path id="XMLID_1381_" d="M806.1,169.2c0,0-0.1,1.1-0.3,3c-0.1,1-0.3,2.2-0.4,3.5c-0.2,1.3-0.3,2.9-0.5,4.4
		c-0.2,1.7-0.3,3.4-0.5,5.3c-0.1,1.9-0.3,3.8-0.3,5.9c-0.1,1-0.1,2.1-0.2,3.1c0,1,0,2.1,0,3.1c0,1,0,2.2,0.1,3.2s0,2.2,0.2,3.2
		c0.1,1,0.2,2.2,0.3,3.2s0.3,2.1,0.4,3.1c0.1,1,0.3,2.1,0.5,3c0.2,1,0.3,2,0.6,3c0.3,1,0.5,1.9,0.8,2.9c0.3,1,0.6,1.8,0.9,2.7
		c0.3,0.9,0.7,1.7,1,2.5c0.3,0.8,0.6,1.7,1,2.3c0.8,1.4,1.4,2.8,2.1,3.9c0.7,1.1,1.2,2.2,1.8,2.9c1.1,1.6,1.7,2.5,1.7,2.5
		s-0.9-0.7-2.3-2c-0.8-0.6-1.6-1.6-2.4-2.5c-1-1-1.8-2.3-2.8-3.7c-0.5-0.7-0.9-1.5-1.4-2.3c-0.4-0.8-1-1.7-1.3-2.5
		c-0.4-0.9-0.8-1.8-1.2-2.8c-0.3-1-0.7-2-1-3c-0.3-1-0.6-2.1-0.9-3.1c-0.3-1-0.6-2.2-0.7-3.2c-0.2-1.1-0.3-2.2-0.5-3.3
		c-0.1-1.1-0.2-2.3-0.3-3.4c-0.1-1.1-0.1-2.3-0.1-3.4c0-1.1-0.1-2.3,0-3.4c0-1.1,0.1-2.2,0.2-3.3c0.1-1,0.3-2.2,0.3-3.2
		c0.2-2.1,0.6-4.1,0.9-6c0.3-1.9,0.8-3.7,1.1-5.3c0.4-1.7,0.9-3.1,1.2-4.4c0.3-1.3,0.8-2.4,1.1-3.3
		C805.8,170.2,806.1,169.2,806.1,169.2z"/>
</g>
<g id="XMLID_899_">
	<path id="XMLID_1378_" class="st0" d="M558.6,490.3c0,0,1.8-6.4,5.2-15.7c0.9-2.3,1.7-4.9,2.8-7.5c1-2.6,2.1-5.5,3.2-8.3
		c1.1-2.9,2.3-5.8,3.6-8.8c1.3-3,2.5-6,3.8-9c1.3-3,2.7-6,4-9c1.3-3,2.7-5.8,4-8.6c1.3-2.8,2.6-5.5,3.8-8c1.2-2.5,2.4-5,3.6-7.1
		c4.5-8.8,7.9-14.5,7.9-14.5s-1.8,6.4-5.2,15.7c-0.9,2.3-1.7,4.9-2.8,7.5c-1,2.6-2.1,5.5-3.2,8.3c-1.1,2.9-2.3,5.8-3.6,8.8
		c-1.3,3-2.5,6-3.8,9s-2.7,6-4,9c-1.3,3-2.7,5.8-4,8.6c-1.3,2.8-2.6,5.5-3.8,8c-1.2,2.5-2.4,5-3.6,7.1
		C562,484.6,558.6,490.3,558.6,490.3z"/>
</g>
<g id="XMLID_896_">
	<path id="XMLID_1375_" class="st0" d="M579.7,500.3c0,0,1.8-6.4,5.2-15.7c0.9-2.3,1.7-4.9,2.8-7.5c1-2.6,2.1-5.5,3.2-8.3
		c1.1-2.9,2.3-5.8,3.6-8.8c1.3-3,2.5-6,3.8-9s2.7-6,4-9c1.3-3,2.7-5.8,4-8.6c1.3-2.8,2.6-5.5,3.8-8c1.2-2.5,2.4-5,3.6-7.1
		c4.5-8.8,7.9-14.5,7.9-14.5s-1.8,6.4-5.2,15.7c-0.9,2.3-1.7,4.9-2.8,7.5c-1,2.6-2.1,5.5-3.2,8.3c-1.1,2.9-2.3,5.8-3.6,8.8
		c-1.3,3-2.5,6-3.8,9s-2.7,6-4,9c-1.3,3-2.7,5.8-4,8.6c-1.3,2.8-2.6,5.5-3.8,8c-1.2,2.5-2.4,5-3.6,7.1
		C583.1,494.7,579.7,500.3,579.7,500.3z"/>
</g>
<g id="XMLID_893_">
	<path id="XMLID_1372_" class="st0" d="M614.1,490.3c0,0,0.3-1.2,0.9-3.3c0.6-2.1,1.5-5.1,2.7-8.6c0.6-1.7,1.2-3.7,2-5.7
		c0.7-2,1.5-4.2,2.3-6.4c1.7-4.4,3.5-9,5.5-13.6c1.9-4.5,4-9.1,6-13.3c2-4.2,3.9-8.1,5.7-11.4c1.7-3.3,3.3-6,4.4-7.9
		c1.1-1.9,1.8-3,1.8-3s-0.3,1.2-0.9,3.3c-0.6,2.1-1.5,5.1-2.7,8.6c-1.1,3.6-2.6,7.7-4.3,12c-1.7,4.4-3.5,9-5.5,13.6
		c-1.9,4.5-4,9.1-6,13.3c-1,2.1-2,4.1-3,6c-1,1.9-1.9,3.7-2.8,5.4c-1.7,3.3-3.3,6-4.4,7.9C614.8,489.3,614.1,490.3,614.1,490.3z"/>
</g>
<g id="XMLID_890_">
	<path id="XMLID_918_" class="st0" d="M369.4,1088.9c0,0,0.2,1.3,0.3,3.6c0.2,2.3,0.3,5.5,0.3,9.3c0,1.9,0.1,4,0,6.3
		c0,2.2,0,4.5-0.1,7c-0.1,2.4-0.1,4.9-0.3,7.4c-0.1,2.5-0.3,5-0.4,7.7c-0.2,2.5-0.3,5.1-0.5,7.7c-0.2,2.5-0.4,5-0.7,7.4
		c-0.2,2.4-0.5,4.7-0.8,6.9c-0.3,2.2-0.5,4.3-0.8,6.2c-0.5,3.8-1.1,7-1.5,9.2c-0.4,2.3-0.7,3.5-0.7,3.5s-0.2-1.3-0.3-3.6
		c-0.2-2.3-0.3-5.5-0.3-9.3c0-1.9-0.1-4,0-6.3c0-2.2,0-4.5,0.1-7c0.1-2.4,0.1-4.9,0.3-7.4c0.1-2.5,0.3-5,0.4-7.7
		c0.2-2.5,0.3-5.1,0.5-7.7s0.4-5,0.7-7.4c0.2-2.4,0.5-4.7,0.8-6.9c0.3-2.2,0.5-4.3,0.8-6.2c0.5-3.8,1.1-7,1.5-9.2
		C369.2,1090.1,369.4,1088.9,369.4,1088.9z"/>
</g>
<g id="XMLID_887_">
	<path id="XMLID_915_" class="st0" d="M392.8,1093.3c0,0,0.2,1.3,0.3,3.6c0.2,2.3,0.3,5.5,0.3,9.3c0,1.9,0.1,4,0,6.3
		c0,2.2,0,4.5-0.1,7c-0.1,2.4-0.1,4.9-0.3,7.4c-0.1,2.5-0.3,5-0.4,7.7c-0.2,2.5-0.3,5.1-0.5,7.7c-0.2,2.5-0.4,5-0.7,7.4
		c-0.2,2.4-0.5,4.7-0.8,6.9s-0.5,4.3-0.8,6.2c-0.5,3.8-1.1,7-1.5,9.2c-0.4,2.3-0.7,3.5-0.7,3.5s-0.2-1.3-0.3-3.6
		c-0.2-2.3-0.3-5.5-0.3-9.3c0-1.9-0.1-4,0-6.3c0-2.2,0-4.5,0.1-7c0.1-2.4,0.1-4.9,0.3-7.4c0.1-2.5,0.3-5,0.4-7.7
		c0.2-2.5,0.3-5.1,0.5-7.7c0.2-2.5,0.4-5,0.7-7.4c0.2-2.4,0.5-4.7,0.8-6.9s0.5-4.3,0.8-6.2c0.5-3.8,1.1-7,1.5-9.2
		C392.5,1094.6,392.8,1093.3,392.8,1093.3z"/>
</g>
<g id="XMLID_884_">
	<path id="XMLID_912_" class="st0" d="M422.3,1093.3c0,0,0.2,1.3,0.3,3.6c0.2,2.3,0.3,5.5,0.3,9.3c0,1.9,0.1,4,0,6.3
		c0,2.2,0,4.5-0.1,7c-0.1,2.4-0.1,4.9-0.3,7.4c-0.1,2.5-0.3,5-0.4,7.7c-0.2,2.5-0.3,5.1-0.5,7.7c-0.2,2.5-0.4,5-0.7,7.4
		c-0.2,2.4-0.5,4.7-0.8,6.9s-0.5,4.3-0.8,6.2c-0.5,3.8-1.1,7-1.5,9.2c-0.4,2.3-0.7,3.5-0.7,3.5s-0.2-1.3-0.3-3.6
		c-0.2-2.3-0.3-5.5-0.3-9.3c0-1.9-0.1-4,0-6.3c0-2.2,0-4.5,0.1-7c0.1-2.4,0.1-4.9,0.3-7.4c0.1-2.5,0.3-5,0.4-7.7
		c0.2-2.5,0.3-5.1,0.5-7.7c0.2-2.5,0.4-5,0.7-7.4c0.2-2.4,0.5-4.7,0.8-6.9c0.3-2.2,0.5-4.3,0.8-6.2c0.5-3.8,1.1-7,1.5-9.2
		C422,1094.6,422.3,1093.3,422.3,1093.3z"/>
</g>
<g id="XMLID_881_">
	<path id="XMLID_909_" class="st0" d="M449.4,1100.9c0,0,0.2,1.3,0.3,3.6c0.2,2.3,0.3,5.5,0.3,9.3c0,1.9,0.1,4,0,6.3
		c0,2.2,0,4.5-0.1,7c-0.1,2.4-0.1,4.9-0.3,7.4c-0.1,2.5-0.3,5-0.4,7.7c-0.2,2.5-0.3,5.1-0.5,7.7c-0.2,2.5-0.4,5-0.7,7.4
		c-0.2,2.4-0.5,4.7-0.8,6.9s-0.5,4.3-0.8,6.2c-0.5,3.8-1.1,7-1.5,9.2c-0.4,2.3-0.7,3.5-0.7,3.5s-0.2-1.3-0.3-3.6
		c-0.2-2.3-0.3-5.5-0.3-9.3c0-1.9-0.1-4,0-6.3c0-2.2,0-4.5,0.1-7c0.1-2.4,0.1-4.9,0.3-7.4c0.1-2.5,0.3-5,0.4-7.7
		c0.2-2.5,0.3-5.1,0.5-7.7s0.4-5,0.7-7.4c0.2-2.4,0.5-4.7,0.8-6.9c0.3-2.2,0.5-4.3,0.8-6.2c0.5-3.8,1.1-7,1.5-9.2
		S449.4,1100.9,449.4,1100.9z"/>
</g>
<g id="XMLID_878_">
	<path id="XMLID_906_" class="st0" d="M476.4,1093.3c0,0,0.2,1.3,0.3,3.6c0.2,2.3,0.3,5.5,0.3,9.3c0,1.9,0.1,4,0,6.3
		c0,2.2,0,4.5-0.1,7c-0.1,2.4-0.1,4.9-0.3,7.4c-0.1,2.5-0.3,5-0.4,7.7c-0.2,2.5-0.3,5.1-0.5,7.7c-0.2,2.5-0.4,5-0.7,7.4
		c-0.2,2.4-0.5,4.7-0.8,6.9s-0.5,4.3-0.8,6.2c-0.5,3.8-1.1,7-1.5,9.2c-0.4,2.3-0.7,3.5-0.7,3.5s-0.2-1.3-0.3-3.6
		c-0.2-2.3-0.3-5.5-0.3-9.3c0-1.9-0.1-4,0-6.3c0-2.2,0-4.5,0.1-7c0.1-2.4,0.1-4.9,0.3-7.4c0.1-2.5,0.3-5,0.4-7.7
		c0.2-2.5,0.3-5.1,0.5-7.7c0.2-2.5,0.4-5,0.7-7.4c0.2-2.4,0.5-4.7,0.8-6.9c0.3-2.2,0.5-4.3,0.8-6.2c0.5-3.8,1.1-7,1.5-9.2
		S476.4,1093.3,476.4,1093.3z"/>
</g>
<g id="XMLID_875_">
	<path id="XMLID_903_" class="st0" d="M1112.1,1091.6c0,0,0.3,1.3,0.8,3.5c0.4,2.3,1,5.4,1.7,9.2c0.3,1.9,0.6,4,0.9,6.2
		s0.6,4.5,0.9,6.9c0.3,2.4,0.5,4.9,0.8,7.4s0.4,5,0.6,7.7c0.2,2.5,0.3,5.1,0.5,7.7c0.2,2.5,0.3,5,0.3,7.4c0.1,2.4,0.2,4.7,0.2,7
		c0.1,2.2,0.1,4.3,0,6.3c0,3.8-0.2,7-0.3,9.3s-0.3,3.6-0.3,3.6s-0.3-1.3-0.8-3.5c-0.4-2.3-1-5.4-1.7-9.2c-0.3-1.9-0.6-4-0.9-6.2
		c-0.3-2.2-0.6-4.5-0.9-6.9c-0.3-2.4-0.5-4.9-0.8-7.4c-0.3-2.5-0.4-5-0.6-7.7c-0.2-2.5-0.3-5.1-0.5-7.7c-0.2-2.5-0.2-5-0.3-7.4
		c-0.1-2.4-0.2-4.7-0.2-7c-0.1-2.2-0.1-4.3,0-6.3c0-3.8,0.2-7,0.3-9.3C1112,1093,1112.1,1091.6,1112.1,1091.6z"/>
</g>
<g id="XMLID_872_">
	<path id="XMLID_900_" class="st0" d="M1131.7,1094.3c0,0,0.4,1.2,1.2,3.4c0.7,2.2,1.7,5.2,2.8,9c0.5,1.8,1.1,3.8,1.7,6
		c0.6,2.2,1.2,4.4,1.7,6.7s1.2,4.8,1.7,7.2c0.6,2.4,1.1,5,1.7,7.5c0.5,2.5,1,5,1.5,7.5c0.5,2.5,0.9,5,1.3,7.3c0.4,2.3,0.8,4.7,1,6.9
		c0.3,2.2,0.6,4.3,0.9,6.2c0.5,3.8,0.8,7,1,9.3c0.2,2.3,0.3,3.6,0.3,3.6s-0.4-1.2-1.2-3.4c-0.7-2.2-1.7-5.2-2.8-9
		c-0.5-1.8-1.1-3.8-1.7-6c-0.6-2.2-1.2-4.4-1.7-6.7s-1.2-4.8-1.7-7.2c-0.6-2.4-1.1-5-1.7-7.5s-1-5-1.5-7.5c-0.5-2.5-0.9-5-1.3-7.3
		c-0.4-2.3-0.8-4.7-1-6.9c-0.3-2.2-0.6-4.3-0.9-6.2c-0.5-3.8-0.8-7-1-9.3C1131.7,1095.6,1131.7,1094.3,1131.7,1094.3z"/>
</g>
<g id="XMLID_869_">
	<path id="XMLID_897_" class="st0" d="M1160.2,1086.5c0,0,0.4,1.2,1.2,3.4c0.7,2.2,1.7,5.2,2.8,9c0.5,1.8,1.1,3.8,1.7,6
		c0.6,2.2,1.2,4.4,1.7,6.7c0.5,2.3,1.2,4.8,1.7,7.2c0.6,2.4,1.1,5,1.7,7.5c0.5,2.5,1,5,1.5,7.5c0.5,2.5,0.9,5,1.3,7.3
		c0.4,2.3,0.8,4.7,1,6.9c0.3,2.2,0.6,4.3,0.9,6.2c0.5,3.8,0.8,7,1,9.3c0.2,2.3,0.3,3.6,0.3,3.6s-0.4-1.2-1.2-3.4
		c-0.7-2.2-1.7-5.2-2.8-9c-0.5-1.8-1.1-3.8-1.7-6c-0.6-2.2-1.2-4.4-1.7-6.7c-0.5-2.3-1.2-4.8-1.7-7.2c-0.6-2.4-1.1-5-1.7-7.5
		c-0.5-2.5-1-5-1.5-7.5c-0.5-2.5-0.9-5-1.3-7.3c-0.4-2.3-0.8-4.7-1-6.9c-0.3-2.2-0.6-4.3-0.9-6.2c-0.5-3.8-0.8-7-1-9.3
		C1160.2,1087.8,1160.2,1086.5,1160.2,1086.5z"/>
</g>
<g id="XMLID_866_">
	<path id="XMLID_894_" class="st0" d="M1188.3,1086.7c0,0,0.4,1.2,1.2,3.4c0.7,2.2,1.7,5.2,2.8,9c0.5,1.8,1.1,3.8,1.7,6
		c0.6,2.2,1.2,4.4,1.7,6.7c0.5,2.3,1.2,4.8,1.7,7.2c0.6,2.4,1.1,5,1.7,7.5c0.5,2.5,1,5,1.5,7.5c0.5,2.5,0.9,5,1.3,7.3
		c0.4,2.3,0.8,4.7,1,6.9c0.3,2.2,0.6,4.3,0.9,6.2c0.5,3.8,0.8,7,1,9.3c0.2,2.3,0.3,3.6,0.3,3.6s-0.4-1.2-1.2-3.4
		c-0.7-2.2-1.7-5.2-2.8-9c-0.5-1.8-1.1-3.8-1.7-6c-0.6-2.2-1.2-4.4-1.7-6.7c-0.5-2.3-1.2-4.8-1.7-7.2c-0.6-2.4-1.1-5-1.7-7.5
		c-0.5-2.5-1-5-1.5-7.5c-0.5-2.5-0.9-5-1.3-7.3c-0.4-2.3-0.8-4.7-1-6.9c-0.3-2.2-0.6-4.3-0.9-6.2c-0.5-3.8-0.8-7-1-9.3
		C1188.4,1088,1188.3,1086.7,1188.3,1086.7z"/>
</g>
<g id="XMLID_865_">
	<path id="XMLID_891_" class="st0" d="M1212.3,1072.2c0,0,0.4,1.2,1.2,3.4c0.7,2.2,1.7,5.2,2.8,9c0.5,1.8,1.1,3.8,1.7,6
		c0.6,2.2,1.2,4.4,1.7,6.7c0.5,2.3,1.2,4.8,1.7,7.2c0.6,2.4,1.1,5,1.7,7.5c0.5,2.5,1,5,1.5,7.5c0.5,2.5,0.9,5,1.3,7.3
		c0.4,2.3,0.8,4.7,1,6.9c0.3,2.2,0.6,4.3,0.9,6.2c0.5,3.8,0.8,7,1,9.3c0.2,2.3,0.3,3.6,0.3,3.6s-0.4-1.2-1.2-3.4
		c-0.7-2.2-1.7-5.2-2.8-9c-0.5-1.8-1.1-3.8-1.7-6c-0.6-2.2-1.2-4.4-1.7-6.7c-0.5-2.3-1.2-4.8-1.7-7.2c-0.6-2.4-1.1-5-1.7-7.5
		c-0.5-2.5-1-5-1.5-7.5c-0.5-2.5-0.9-5-1.3-7.3c-0.4-2.3-0.8-4.7-1-6.9c-0.3-2.2-0.6-4.3-0.9-6.2c-0.5-3.8-0.8-7-1-9.3
		C1212.4,1073.5,1212.3,1072.2,1212.3,1072.2z"/>
</g>
<g id="XMLID_867_">
	<path id="XMLID_888_" d="M478.3,246c0,0,1.7,1.5,4.4,4.2c1.4,1.3,3,3,5,4.8c1,0.9,2,1.8,3.1,2.9c1.1,1,2.2,2.1,3.5,3.1
		c1.2,1,2.5,2.2,3.9,3.3c0.7,0.6,1.3,1.1,2,1.7c0.7,0.5,1.4,1.1,2.2,1.7c1.5,1.1,3,2.3,4.5,3.5c1.6,1.1,3.2,2.3,4.9,3.4
		c0.8,0.6,1.7,1.1,2.5,1.7c0.9,0.5,1.7,1,2.6,1.6c1.7,1,3.5,2.2,5.4,3.2c1.8,1,3.7,1.9,5.6,3c1,0.5,1.9,0.9,2.9,1.3l3,1.2
		c1,0.4,1.9,0.9,3,1.2l3,1c2,0.6,4,1.4,6,1.8c1,0.3,2,0.5,3,0.7c1,0.3,2,0.6,3,0.7c2,0.3,4,0.6,6,1c2,0.3,3.9,0.3,5.8,0.4
		c1,0.1,1.9,0.2,2.9,0.2s1.8,0,2.8-0.1c1.8-0.1,3.7-0.1,5.4-0.1c1.7-0.2,3.4-0.3,5-0.5c3.2-0.3,6.2-0.9,8.7-1.3
		c1.3-0.3,2.5-0.4,3.7-0.7c1.1-0.3,2.2-0.5,3-0.8c3.7-1,5.9-1.4,5.9-1.4s-1.9,1-5.5,2.6c-0.9,0.4-1.8,0.9-3,1.3
		c-1,0.4-2.3,0.8-3.6,1.2c-1.3,0.4-2.6,0.9-4.1,1.4c-0.7,0.3-1.5,0.4-2.3,0.6c-0.8,0.2-1.6,0.3-2.4,0.5c-1.7,0.3-3.3,0.8-5.1,1.1
		c-1.8,0.2-3.7,0.4-5.6,0.6c-1,0.1-1.9,0.3-3,0.3c-1,0-2,0-3,0c-1,0-2.1,0-3.1,0c-1,0-2.1,0-3.1-0.1c-2.1-0.2-4.3-0.4-6.4-0.7
		c-2.2-0.3-4.4-0.9-6.5-1.3c-2.2-0.3-4.4-1.1-6.5-1.8l-3.2-1c-1-0.3-2.1-0.9-3.1-1.3l-3.1-1.4c-1-0.4-2.1-0.9-3-1.4
		c-2-1-3.9-2.2-5.9-3.2c-1.9-1.1-3.7-2.4-5.5-3.6c-0.9-0.6-1.8-1.2-2.7-1.8c-0.9-0.7-1.7-1.3-2.5-1.9c-1.7-1.3-3.3-2.5-4.8-3.8
		c-1.5-1.4-3-2.7-4.4-4c-0.7-0.6-1.4-1.3-2.1-1.9c-0.7-0.7-1.3-1.3-1.9-2c-1.2-1.3-2.4-2.6-3.6-3.8c-2.3-2.4-4.1-4.9-5.8-7
		c-1.7-2.1-3-4-4.2-5.6C479.5,247.8,478.3,246,478.3,246z"/>
</g>
<circle id="XMLID_1726_" cx="881.7" cy="395.1" r="11.3"/>
<g id="XMLID_1729_">
	<path id="XMLID_885_" d="M661.5,502.2c0,0,2.7,1.4,7.5,3.7c1.2,0.5,2.6,1,4.1,1.7s3,1.3,4.8,1.8c1.7,0.6,3.6,1.2,5.6,1.8
		c1.9,0.7,4.1,1.1,6.3,1.7c1.1,0.3,2.2,0.6,3.3,0.9c1.1,0.3,2.3,0.4,3.5,0.7c2.3,0.4,4.9,1,7.4,1.5c2.5,0.3,5.2,0.8,7.8,1.1
		c2.7,0.4,5.5,0.6,8.3,0.9c1.4,0.2,2.8,0.3,4.3,0.4c1.4,0.1,2.9,0.2,4.4,0.2c1.5,0.1,2.9,0.2,4.4,0.2c1.5,0.1,3,0.2,4.4,0.2
		c3,0,5.9,0.1,9,0.1c3,0.1,6-0.2,9-0.2c6,0,12-0.6,17.9-1c5.9-0.6,11.7-1,17.3-1.7c2.8-0.3,5.6-0.7,8.3-1c1.4-0.2,2.7-0.3,4-0.5
		s2.6-0.4,3.9-0.6c2.6-0.4,5-0.8,7.5-1.1c2.4-0.3,4.8-0.7,7-1.1c4.4-0.8,8.6-1.5,12.2-2.1c3.7-0.7,6.8-1.3,9.4-1.8
		c5.2-1,8.3-1.5,8.3-1.5s-2.9,1-8,2.5c-2.5,0.8-5.7,1.7-9.2,2.7c-3.6,1-7.7,2-12.1,3c-4.4,1.1-9.3,2.1-14.4,3.1
		c-1.3,0.3-2.6,0.5-3.9,0.8c-1.3,0.3-2.7,0.4-4,0.7c-2.7,0.4-5.5,0.9-8.4,1.3c-2.8,0.5-5.7,0.8-8.6,1.1c-3,0.3-5.9,0.8-8.9,1
		c-6,0.4-12.1,1-18.2,1.1c-3,0-6.1,0.3-9.1,0.1c-3-0.1-6.1-0.1-9.1-0.2c-3-0.1-6-0.3-9-0.6c-1.5-0.1-3-0.3-4.4-0.3
		c-1.5-0.2-2.9-0.3-4.4-0.5c-1.4-0.2-2.9-0.3-4.3-0.5c-1.4-0.2-2.8-0.3-4.2-0.7c-2.7-0.5-5.4-1-8-1.6c-2.6-0.6-5-1.2-7.5-1.9
		c-1.2-0.3-2.3-0.6-3.5-1c-1.1-0.3-2.3-0.8-3.3-1.1c-1.1-0.3-2.2-0.7-3.2-1c-1-0.3-2.1-0.7-3-1.1c-1.9-0.8-3.7-1.6-5.5-2.3
		c-1.7-0.7-3.2-1.6-4.7-2.3c-1.4-0.8-2.7-1.5-3.9-2.1c-2.3-1.4-4-2.6-5.1-3.4C662.1,502.7,661.5,502.2,661.5,502.2z"/>
</g>
<g id="XMLID_1732_">
	<path id="XMLID_882_" d="M811.7,102c0.3,1.6,0.6,3,0.9,4.6c0.3,1.6,0.4,3,0.7,4.6c0.4,3,0.7,6.1,1,9.1c0.4,6.1,0.7,12.2,0.7,18.3
		l-5.7-1.9c1.8-2.4,3.7-5,5.7-7.3c1.9-2.4,3.9-4.8,5.9-7.1c2-2.3,4.1-4.6,6.3-6.9c1.1-1.1,2.2-2.3,3.3-3.3c1.1-1,2.3-2.2,3.5-3.2
		c-0.6,1.5-1.4,2.9-2.1,4.3c-0.7,1.4-1.5,2.8-2.3,4.1c-1.6,2.7-3.1,5.4-4.8,8c-1.7,2.6-3.4,5.2-5.1,7.7s-3.6,5-5.4,7.5l-5.7,7.6
		v-9.5c0-6.1,0.3-12.2,0.7-18.3c0.3-3,0.5-6.1,1-9.1c0.3-1.6,0.4-3,0.7-4.6C811.1,105,811.5,103.6,811.7,102z"/>
</g>
<g id="XMLID_1735_">
	<path id="XMLID_879_" class="st0" d="M745.4,474.3c0,0,6.5-0.7,17.9-1.7c5.7-0.4,12.6-1,20.6-1.1c2,0,4.1-0.1,6.2,0
		c1,0,2.2,0.1,3.3,0.2c0.5,0.1,1.1,0.2,1.7,0.3c0.3,0.1,0.6,0.2,0.9,0.3c0.3,0.1,0.6,0.3,1,0.6c0.2,0.2,0.4,0.6,0.3,1
		c0,0.4-0.2,0.6-0.3,0.9c-0.1,0.1-0.2,0.2-0.2,0.3l-0.2,0.2c-0.1,0.1-0.3,0.2-0.4,0.3c-0.6,0.4-1,0.6-1.7,0.9c-1,0.5-2.2,1-3.3,1.4
		c-2.3,0.9-4.5,1.6-6.9,2.3c-9.4,3-19.8,5.4-30.9,7.6c-5.6,1-11.3,2-17.1,2.8c-5.9,0.7-12,1.3-18.3,1.4c-3.1,0.1-6.4,0-9.6-0.3
		c-3.2-0.4-6.6-1-10-2.7c-0.9-0.4-1.7-1-2.5-1.7c-0.2-0.2-0.3-0.3-0.6-0.6L695,486c-0.3-0.3-0.7-0.8-1-1.1c-0.6-0.8-1.1-1.7-1.5-2.8
		c-0.3-1-0.5-2.3-0.3-3.7c0.3-2.6,1.9-4.4,3.3-5.7c1.5-1.3,3-2.3,4.6-3.1c6.3-3.2,12.7-4.8,19.2-6.2s13.1-2.3,19.6-3.1
		c13.1-1.6,26.3-2.3,39.2-2.5c13-0.2,25.7,0.1,38,1.3c6.2,0.6,12.3,1.4,18.2,2.9c1.5,0.3,3,0.8,4.4,1.4c1.5,0.6,3,1.2,4.5,2.3
		c0.4,0.3,0.8,0.6,1.1,1c0.1,0.1,0.3,0.4,0.4,0.6c0.1,0.2,0.3,0.4,0.3,0.7c0.2,0.4,0.3,1,0.3,1.5c0,1-0.3,1.7-0.7,2.2s-0.6,1-1,1.3
		c-1.3,1.4-2.6,2.2-3.8,3c-5.1,3.1-10.3,5.1-15.3,7c-5,1.8-9.9,3.4-14.7,4.8c-9.5,2.7-18.4,4.7-26.2,6c-7.9,1.4-14.8,2.3-20.5,2.7
		c-5.7,0.5-10.2,0.6-13.3,0.6c-3,0-4.7-0.1-4.7-0.1s1.7-0.1,4.7-0.3c3-0.3,7.5-0.7,13.1-1.6c5.7-0.8,12.4-2.1,20.2-3.9
		c7.7-1.8,16.4-4.2,25.6-7.2c4.6-1.6,9.4-3.3,14.2-5.2c4.8-2,9.8-4.2,14.2-7c1-0.7,2.1-1.5,2.8-2.3c0.3-0.3,0.3-0.8,0.3-0.3
		c0,0.1,0,0.3,0.1,0.4c0,0.1,0.1,0.2,0.1,0.2l0.2,0.2c-0.1-0.1-0.3-0.3-0.4-0.3c-0.8-0.5-2-1-3.2-1.5c-1.2-0.4-2.6-0.8-4-1.1
		c-5.5-1.2-11.4-1.9-17.5-2.3c-6-0.4-12.2-0.7-18.4-0.9c-6.3-0.2-12.6-0.2-19,0c-12.8,0.3-25.8,1.1-38.6,2.5
		c-6.4,0.7-12.8,1.7-19.1,3c-3.1,0.6-6.2,1.4-9.2,2.3c-3,0.9-5.9,1.9-8.5,3.2c-1.3,0.7-2.5,1.4-3.4,2.2c-1,0.8-1.5,1.7-1.6,2.3
		c-0.3,1,1.5,3.8,3.4,4.8c2.2,1.2,5.1,1.8,8,2.3c3,0.4,5.9,0.6,8.9,0.6c12,0.1,23.8-1.4,34.8-3c5.5-0.9,10.9-1.7,16-2.8
		c5.1-1,10.1-2.1,14.9-3.2c2.3-0.6,4.7-1.2,6.9-1.9c1.1-0.3,2.2-0.7,3.2-1.1c0.5-0.2,1-0.4,1.4-0.7c0.1,0,0.2-0.1,0.3-0.2
		c0,0,0.2-0.1,0.1-0.1l0.1-0.1c0,0,0-0.1,0,0.1s0.1,0.3,0.1,0.3c0-0.1-0.6-0.3-1-0.4c-0.5-0.1-1-0.2-1.6-0.3c-1-0.2-2.1-0.3-3.1-0.3
		c-2.1-0.1-4.2-0.2-6.1-0.2c-7.9,0-14.9,0.3-20.6,0.5C751.9,473.8,745.4,474.3,745.4,474.3z"/>
</g>
</svg>
